# Made in Blockbench 5.1.3
mtllib Resistor.mtl

o Resistor_Sphere.002
v 0.264450625 0.12171568146891375 -0.109576875
v 0.29824875 0.12171568146891375 -0.115625
v 0.29824875 0.014774551188167829 -0.052625
v 0.264450625 0.01997419584656958 -0.04960125
v 0.3491125 0.12171568146891375 -0.063713125
v 0.3491125 0.05873233693634226 -0.02666875
v 0.29824875 0.014774551188167829 0.073375
v 0.264450625 0.01997419584656958 0.07035125
v 0.3491125 0.12171568146891375 0.08458875
v 0.3491125 0.05873233693634226 0.04741875
v 0.364294375 0.10103651772453486 0.041496875
v 0.3491125 0.18458033925182557 -0.02666875
v 0.3491125 0.18458033925182557 0.04741875
v 0.364294375 0.15645667655947026 0.008863125
v 0.29824875 0.12171568146891375 0.136375
v 0.264450625 0.12171568146891375 0.130326875
v 0.364294375 0.10103651772453486 -0.02377125
v 0.29824875 0.228538125 0.073375
v 0.264450625 0.2234571670912579 0.07035125
v 0.29824875 0.228538125 -0.052625
v 0.264450625 0.2234571670912579 -0.04960125
v 0.020991875 0.2072677119260283 -0.040025
v 0.020991875 0.12171568146891375 -0.09055125
v 0.020991875 0.2072677119260283 0.06090125
v 0.020991875 0.12171568146891375 0.11130125
v 0.020991875 0.03604496426213953 0.06090125
v 0.020991875 0.03604496426213953 -0.040025
v 0.41970125 0.15645667655947026 0.008863125
v 0.41970125 0.10103651772453486 -0.02377125
v 0.41970125 0.10103651772453486 0.041496875
v 0.464026875 0.12927813902698132 0.008863125
v 0.464026875 -0.21269625 0.008863125
v 0.41970125 -0.21269625 -0.02377125
v 0.41970125 -0.21269625 0.041496875
v -0.3222 0.10103651772453486 -0.02377125
v -0.37472625 0.10103651772453486 -0.02377125
v -0.37472625 0.15645667655947026 0.008863125
v -0.3222 0.15645667655947026 0.008863125
v -0.22235625 0.2234571670912579 0.07035125
v -0.22235625 0.2234571670912579 -0.04960125
v -0.256155 0.228538125 -0.052625
v -0.256155 0.228538125 0.073375
v -0.30701875 0.05873233693634226 -0.02666875
v -0.30701875 0.12171568146891375 -0.063713125
v -0.256155 0.014774551188167829 -0.052625
v -0.256155 0.014774551188167829 0.073375
v -0.30701875 0.05873233693634226 0.04741875
v -0.3222 0.10103651772453486 0.041496875
v -0.22235625 0.12171568146891375 -0.109576875
v -0.256155 0.12171568146891375 -0.115625
v -0.30701875 0.18458033925182557 0.04741875
v -0.30701875 0.12171568146891375 0.08458875
v -0.256155 0.12171568146891375 0.136375
v -0.30701875 0.18458033925182557 -0.02666875
v -0.37472625 0.10103651772453486 0.041496875
v -0.22235625 0.01997419584656958 -0.04960125
v -0.22235625 0.01997419584656958 0.07035125
v -0.22235625 0.12171568146891375 0.130326875
v -0.41894125 0.12927813902698132 0.008863125
v -0.37472625 -0.21269625 -0.02377125
v -0.41894125 -0.21269625 0.008863125
v -0.37472625 -0.21269625 0.041496875
vt 0.664061875 0.0625
vt 0.664061875 0
vt 0.828125 0
vt 0.828125 0.0625
vt 0.414061875 0.890625
vt 0.445311875 0.90625
vt 0.445311875 0.945311875
vt 0.414061875 0.953125
vt 0.828125 0.0625
vt 0.828125 0
vt 1 0
vt 1 0.0625
vt 0.507811875 0.9375
vt 0.484375 0.953125
vt 0.484375 0.9375
vt 0.414061875 0.953125
vt 0.445311875 0.945311875
vt 0.484375 0.953125
vt 0.484375 1
vt 0.476561875 0.890625
vt 0.507811875 0.898438125
vt 0.484375 0.90625
vt 0 0.0625
vt 0 0
vt 0.171875 0
vt 0.171875 0.0625
vt 0.484375 1
vt 0.484375 0.953125
vt 0.507811875 0.9375
vt 0.546875 0.953125
vt 0.445311875 0.90625
vt 0.476561875 0.890625
vt 0.484375 0.90625
vt 0.460938125 0.921875
vt 0.171875 0.0625
vt 0.171875 0
vt 0.34375 0
vt 0.34375 0.0625
vt 0.546875 0.953125
vt 0.507811875 0.9375
vt 0.507811875 0.898438125
vt 0.546875 0.882811875
vt 0.507811875 0.898438125
vt 0.507811875 0.9375
vt 0.484375 0.9375
vt 0.484375 0.90625
vt 0.34375 0.0625
vt 0.34375 0
vt 0.5 0
vt 0.5 0.0625
vt 0.484375 0.953125
vt 0.445311875 0.945311875
vt 0.460938125 0.921875
vt 0.484375 0.9375
vt 0.546875 0.882811875
vt 0.507811875 0.898438125
vt 0.476561875 0.890625
vt 0.476561875 0.84375
vt 0.445311875 0.945311875
vt 0.445311875 0.90625
vt 0.460938125 0.921875
vt 0.5 0.0625
vt 0.5 0
vt 0.664061875 0
vt 0.664061875 0.0625
vt 0.476561875 0.84375
vt 0.476561875 0.890625
vt 0.445311875 0.90625
vt 0.414061875 0.890625
vt 0.5 0.42578125
vt 0.5 0.0625
vt 0.664061875 0.0625
vt 0.664061875 0.42578125
vt 0.34375 0.42578125
vt 0.34375 0.0625
vt 0.5 0.0625
vt 0.5 0.42578125
vt 0.171875 0.42578125
vt 0.171875 0.0625
vt 0.34375 0.0625
vt 0.34375 0.42578125
vt 0 0.42578125
vt 0 0.0625
vt 0.171875 0.0625
vt 0.171875 0.42578125
vt 0.828125 0.42578125
vt 0.828125 0.0625
vt 1 0.0625
vt 1 0.42578125
vt 0.664061875 0.42578125
vt 0.664061875 0.0625
vt 0.828125 0.0625
vt 0.828125 0.42578125
vt 0.367188125 0.890625
vt 0.367188125 0.835938125
vt 0.273438125 0.835938125
vt 0.273438125 0.890625
vt 0.367188125 0.945311875
vt 0.367188125 0.890625
vt 0.273438125 0.890625
vt 0.273438125 0.945311875
vt 0.367188125 1
vt 0.367188125 0.945311875
vt 0.273438125 0.945311875
vt 0.273438125 1
vt 0.273438125 0.890625
vt 0.273438125 0.835938125
vt 0.234375 0.851561875
vt 0.273438125 1
vt 0.273438125 0.945311875
vt 0.234375 0.984375
vt 0.273438125 0.890625
vt 0.304688125 0.84375
vt 0 0.84375
vt 0 0.890625
vt 0.273438125 0.945311875
vt 0.273438125 0.890625
vt 0 0.890625
vt 0 0.945311875
vt 0.304688125 1
vt 0.273438125 0.945311875
vt 0 0.945311875
vt 0 1
vt 0.367188125 0.890625
vt 0.273438125 0.890625
vt 0.273438125 0.835938125
vt 0.367188125 0.835938125
vt 0.34375 0.789061875
vt 0.5 0.789061875
vt 0.5 0.828125
vt 0.34375 0.828125
vt 0.59375 0.898438125
vt 0.609375 0.921875
vt 0.59375 0.9375
vt 0.5625 0.890625
vt 0.625 0.84375
vt 0.625 0.890625
vt 0.59375 0.898438125
vt 0.625 0.890625
vt 0.632811875 0.90625
vt 0.609375 0.921875
vt 0.59375 0.898438125
vt 0.5 0.789061875
vt 0.664061875 0.789061875
vt 0.664061875 0.828125
vt 0.5 0.828125
vt 0.65625 0.9375
vt 0.632811875 0.9375
vt 0.632811875 0.90625
vt 0.65625 0.90625
vt 0.695311875 0.890625
vt 0.695311875 0.960938125
vt 0.65625 0.9375
vt 0.65625 0.90625
vt 0.695311875 0.960938125
vt 0.625 1
vt 0.625 0.953125
vt 0.65625 0.9375
vt 0.625 0.953125
vt 0.632811875 0.9375
vt 0.65625 0.9375
vt 0.367188125 0.945311875
vt 0.273438125 0.945311875
vt 0.273438125 0.890625
vt 0.367188125 0.890625
vt 0.625 1
vt 0.5625 0.953125
vt 0.59375 0.9375
vt 0.625 0.953125
vt 0.828125 0.789061875
vt 1 0.789061875
vt 1 0.828125
vt 0.828125 0.828125
vt 0.65625 0.90625
vt 0.632811875 0.90625
vt 0.625 0.890625
vt 0.664061875 0.789061875
vt 0.828125 0.789061875
vt 0.828125 0.828125
vt 0.664061875 0.828125
vt 0.625 0.84375
vt 0.695311875 0.890625
vt 0.65625 0.90625
vt 0.625 0.890625
vt 0.59375 0.9375
vt 0.609375 0.921875
vt 0.632811875 0.9375
vt 0.625 0.953125
vt 0 0.789061875
vt 0.171875 0.789061875
vt 0.171875 0.828125
vt 0 0.828125
vt 0.5625 0.953125
vt 0.5625 0.890625
vt 0.59375 0.898438125
vt 0.59375 0.9375
vt 0.171875 0.789061875
vt 0.34375 0.789061875
vt 0.34375 0.828125
vt 0.171875 0.828125
vt 0.367188125 1
vt 0.273438125 1
vt 0.273438125 0.945311875
vt 0.367188125 0.945311875
vt 0.273438125 0.890625
vt 0.234375 0.851561875
vt 0.273438125 0.835938125
vt 0.273438125 1
vt 0.234375 0.984375
vt 0.273438125 0.945311875
vt 0.273438125 0.890625
vt 0 0.890625
vt 0 0.84375
vt 0.304688125 0.84375
vt 0.273438125 0.945311875
vt 0 0.945311875
vt 0 0.890625
vt 0.273438125 0.890625
vt 0.304688125 1
vt 0 1
vt 0 0.945311875
vt 0.273438125 0.945311875
vt 0.664061875 0.789061875
vt 0.664061875 0.42578125
vt 0.828125 0.42578125
vt 0.828125 0.789061875
vt 0.828125 0.789061875
vt 0.828125 0.42578125
vt 1 0.42578125
vt 1 0.789061875
vt 0 0.789061875
vt 0 0.42578125
vt 0.171875 0.42578125
vt 0.171875 0.789061875
vt 0.171875 0.789061875
vt 0.171875 0.42578125
vt 0.34375 0.42578125
vt 0.34375 0.789061875
vt 0.34375 0.789061875
vt 0.34375 0.42578125
vt 0.5 0.42578125
vt 0.5 0.789061875
vt 0.5 0.789061875
vt 0.5 0.42578125
vt 0.664061875 0.42578125
vt 0.664061875 0.789061875
vn -0.15238234430667344 -0.5016516899195547 -0.8515428369403721
vn 0.6605111311428392 -0.3806434444170303 -0.6471751029348597
vn -0.15205527367432123 -0.988371991584053 0
vn 0.8685061200338667 -0.2519278402778867 0.4268834533647775
vn 0.6538754520599106 -0.7566022027416042 0
vn 0.8799695269043786 0.4750301376962142 0
vn -0.15333658586346324 -0.5015767714699028 0.8514156645009333
vn 0.660088163190325 -0.38179026620093504 0.6469310700918933
vn 0.9472910775667186 0.16264867156888535 -0.2760163473408095
vn -0.15233973171628035 0.5020686188582434 0.8513047093129392
vn 0.6591016715901111 0.38276509853168983 0.647360692236675
vn 0.9527480533207148 0.15460244359774533 0.26147510651531314
vn -0.14866205173130614 0.9888880595775431 0
vn 0.9412246738097745 -0.33778116201423053 0
vn 0.6538754520599108 0.7566022027416043 0
vn 0.84454859881803 -0.27147326172538067 -0.4615624902466463
vn -0.15165539143387255 0.5021220809955704 -0.8513953594104896
vn 0.6599532100941553 0.3814259861009259 -0.6472835372642781
vn -0.06749966488663023 0.5066649622690818 -0.8594966033958846
vn -0.06635119489880835 0.9977963313900791 0
vn -0.0671687752626279 0.506676302404772 0.859515840581863
vn -0.06681006464191899 -0.506688532775437 0.8595365879451656
vn -0.06586688479259067 -0.9978284188615395 0
vn -0.06716877526262792 -0.506676302404772 -0.8595158405818633
vn 0 0.5074160754703152 -0.861701181590407
vn 0 -1 0
vn 0 0.5074088596530114 0.8617054306116625
vn 0.29707897356535046 0.4845077172346558 -0.8227978824750466
vn 0.2970751217364011 0.4845014352658276 0.8228029723273097
vn 0.592885648251517 0 -0.8052866620635031
vn -1 0 0
vn 0.592878284806424 0 0.8052920832871716
vn 0 0.5074160754703152 -0.861701181590407
vn 0.1486593634542026 0.9888884637093264 0
vn -0.8445585680739556 -0.27146529025111826 -0.4615489370389082
vn -0.6538754520599106 -0.7566022027416043 0
vn -0.9412290947320602 -0.33776884289387404 0
vn 0.15235477673766215 0.5018947617665844 -0.8514045278928698
vn -0.9525216806751583 0.15449116458632534 0.26236411322536635
vn -0.6600283215765169 0.38162868766001645 0.6470874434508675
vn -0.6538754520599107 0.7566022027416042 0
vn -0.8799777014134206 0.47501499451612383 0
vn 0 -1 0
vn -0.6602502236416825 0.3815296190510158 -0.6469194632779998
vn 0.1520525269061639 -0.9883724141544272 0
vn -0.8685149046988485 -0.2519200171014518 0.42687019724918046
vn 0.1533576019403055 -0.5018159928835264 -0.851270905889212
vn -0.6594542459162991 -0.3815701218717722 0.6477069859417346
vn -0.9473399284985958 0.16248969691806397 -0.2759423096731474
vn 0.15235477673766196 -0.5018947617665844 0.8514045278928699
vn -0.6599283381320848 -0.3813588909909717 -0.647348426114068
vn 0.1516361872422842 0.501950879432835 0.8514997248121848
vn 0 0.5074088596530114 0.8617054306116624
vn -0.297756435010598 0.4844006326041616 -0.8226160298355898
vn -0.2977525761042081 0.4843943547996319 0.8226211232770262
vn -0.5938463368998584 0 -0.804578478552975
vn 1 0 0
vn -0.5938389744894592 0 0.8045839125767477
vn 0.06719090901441326 -0.5068556038339703 -0.8594083887232647
vn 0.06589669759870606 -0.9978264504639996 0
vn 0.0668076146555809 -0.5059281026604959 0.8599845914679995
vn 0.06721015077441658 0.5064355180780472 0.8596545013328903
vn 0.06638122498159164 0.9977943340037283 0
vn 0.06756045076174003 0.5073643330624713 -0.8590791692439902
usemtl m_4ea46062-e6e5-0d10-b633-2b3772c85dc0
f 1/1/1 2/2/1 3/3/1 4/4/1
f 2/5/2 5/6/2 6/7/2 3/8/2
f 4/9/3 3/10/3 7/11/3 8/12/3
f 9/13/4 10/14/4 11/15/4
f 3/16/5 6/17/5 10/18/5 7/19/5
f 12/20/6 13/21/6 14/22/6
f 8/23/7 7/24/7 15/25/7 16/26/7
f 7/27/8 10/28/8 9/29/8 15/30/8
f 5/31/9 12/32/9 14/33/9 17/34/9
f 16/35/10 15/36/10 18/37/10 19/38/10
f 15/39/11 9/40/11 13/41/11 18/42/11
f 13/43/12 9/44/12 11/45/12 14/46/12
f 19/47/13 18/48/13 20/49/13 21/50/13
f 10/51/14 6/52/14 17/53/14 11/54/14
f 18/55/15 13/56/15 12/57/15 20/58/15
f 6/59/16 5/60/16 17/61/16
f 21/62/17 20/63/17 2/64/17 1/65/17
f 20/66/18 12/67/18 5/68/18 2/69/18
f 22/70/19 21/71/19 1/72/19 23/73/19
f 24/74/20 19/75/20 21/76/20 22/77/20
f 25/78/21 16/79/21 19/80/21 24/81/21
f 26/82/22 8/83/22 16/84/22 25/85/22
f 27/86/23 4/87/23 8/88/23 26/89/23
f 23/90/24 1/91/24 4/92/24 27/93/24
f 17/94/25 14/95/25 28/96/25 29/97/25
f 11/98/26 17/99/26 29/100/26 30/101/26
f 14/102/27 11/103/27 30/104/27 28/105/27
f 29/106/28 28/107/28 31/108/28
f 28/109/29 30/110/29 31/111/29
f 29/112/30 31/113/30 32/114/30 33/115/30
f 30/116/31 29/117/31 33/118/31 34/119/31
f 31/120/32 30/121/32 34/122/32 32/123/32
f 35/124/33 36/125/33 37/126/33 38/127/33
f 39/128/34 40/129/34 41/130/34 42/131/34
f 43/132/35 35/133/35 44/134/35
f 45/135/36 46/136/36 47/137/36 43/138/36
f 47/139/37 48/140/37 35/141/37 43/142/37
f 40/143/38 49/144/38 50/145/38 41/146/38
f 51/147/39 38/148/39 48/149/39 52/150/39
f 53/151/40 42/152/40 51/153/40 52/154/40
f 42/155/41 41/156/41 54/157/41 51/158/41
f 54/159/42 38/160/42 51/161/42
f 48/162/43 55/163/43 36/164/43 35/165/43
f 41/166/44 50/167/44 44/168/44 54/169/44
f 56/170/45 57/171/45 46/172/45 45/173/45
f 52/174/46 48/175/46 47/176/46
f 49/177/47 56/178/47 45/179/47 50/180/47
f 46/181/48 53/182/48 52/183/48 47/184/48
f 44/185/49 35/186/49 38/187/49 54/188/49
f 57/189/50 58/190/50 53/191/50 46/192/50
f 50/193/51 45/194/51 43/195/51 44/196/51
f 58/197/52 39/198/52 42/199/52 53/200/52
f 38/201/53 37/202/53 55/203/53 48/204/53
f 36/205/54 59/206/54 37/207/54
f 37/208/55 59/209/55 55/210/55
f 36/211/56 60/212/56 61/213/56 59/214/56
f 55/215/57 62/216/57 60/217/57 36/218/57
f 59/219/58 61/220/58 62/221/58 55/222/58
f 49/223/59 23/224/59 27/225/59 56/226/59
f 56/227/60 27/228/60 26/229/60 57/230/60
f 57/231/61 26/232/61 25/233/61 58/234/61
f 58/235/62 25/236/62 24/237/62 39/238/62
f 39/239/63 24/240/63 22/241/63 40/242/63
f 40/243/64 22/244/64 23/245/64 49/246/64