# Made in Blockbench 5.1.3
mtllib LEDGreen.mtl

o LEDGreen_Sphere.010
v 0.092523125 0.1530256795524766 0.0406325
v 0.085836875 0.18525359318174503 0.03694625
v 0.005185625 0.18525359318174503 0.08122375
v 0.0052275 0.1530256795524766 0.088596875
v 0.066865 0.21256427758198965 0.0264075
v 0.0384075 0.2308168699510798 0.01066
v 0.00501875 0.2308168699510798 0.0290125
v 0.0051025 0.21256427758198965 0.0603075
v 0.004893125 0.237215 -0.0078925
v -0.056869375 0.21256427758198965 0.026006875
v -0.075799375 0.18525359318174503 0.036425625
v -0.028536875 0.2308168699510798 0.01046
v 0.0052275 0.03354288645360626 0.088596875
v 0.092523125 0.03354288645360626 0.0406325
v -0.082778125 0.1530256795524766 -0.0564175
v 0.004559375 0.1530256795524766 -0.104381875
v 0.004559375 0.03354288645360626 -0.104381875
v -0.082778125 0.03354288645360626 -0.0564175
v -0.08244375 0.1530256795524766 0.040071875
v -0.057078125 0.21256427758198965 -0.0421925
v -0.076091875 0.18525359318174503 -0.05273125
v -0.0286625 0.2308168699510798 -0.026485
v 0.004559375 0.18525359318174503 -0.09704875
v 0.004768125 0.2308168699510798 -0.0448375
v 0.0046425 0.21256427758198965 -0.0761325
v 0.085544375 0.18525359318174503 -0.05221
v 0.09218875 0.1530256795524766 -0.055856875
v 0.038281875 0.2308168699510798 -0.026244375
v 0.066614375 0.21256427758198965 -0.041831875
v 0.09218875 0.03354288645360626 -0.055856875
v -0.08244375 0.03354288645360626 0.040071875
v 0.1009225 0.03354288645360626 0.045280625
v 0.100588125 0.03354288645360626 -0.060465
v -0.09080125 0.03354288645360626 0.04468
v 0.0052275 0.03354288645360626 0.097853125
v 0.0045175 0.03354288645360626 -0.113678125
v -0.0911775 0.03354288645360626 -0.061065625
v -0.0911775 0.022059193520485337 -0.061065625
v -0.09080125 0.022059193520485337 0.04468
v 0.100588125 0.022059193520485337 -0.060465
v 0.0045175 0.022059193520485337 -0.113678125
v 0.0052275 0.022059193520485337 0.097853125
v 0.1009225 0.022059193520485337 0.045280625
v 0.004893125 0.022059193520485337 -0.0078925
v 0.050693125 0.022059193520485337 -0.0077725
v 0.069915625 0.022059193520485337 0.00288625
v -0.032966875 0.022059193520485337 -0.0080125
v -0.052189375 0.022059193520485337 -0.01867125
v -0.052105625 0.022059193520485337 0.002485625
v -0.052189375 -0.2136725 -0.01867125
v -0.052105625 -0.2136725 0.002485625
v 0.069831875 0.022059193520485337 -0.018270625
v -0.032966875 -0.2136725 -0.0080125
v 0.069831875 -0.2136725 -0.018270625
v 0.069915625 -0.2136725 0.00288625
v 0.050693125 -0.2136725 -0.0077725
vt 0.343543125 0.76696625
vt 0.33775625 0.82601
vt 0.19728 0.82601
vt 0.191493125 0.76696625
vt 0.32127625 0.883001875
vt 0.29661125 0.9369587500000001
vt 0.23842375 0.9369587500000001
vt 0.21376 0.883001875
vt 0.33775625 0.82601
vt 0.32127625 0.883001875
vt 0.21376 0.883001875
vt 0.19728 0.82601
vt 0.29661125 0.9369587500000001
vt 0.267518125 0.988661875
vt 0.23842375 0.9369587500000001
vt 0.18570625 0.82601
vt 0.16922625 0.883001875
vt 0.06171 0.883001875
vt 0.04523 0.82601
vt 0.144561875 0.9369587500000001
vt 0.115468125 0.988661875
vt 0.086375 0.9369587500000001
vt 0.343543125 0.76696625
vt 0.191493125 0.76696625
vt 0.191493125 0.5511431250000001
vt 0.343543125 0.5511431250000001
vt 0.799691875 0.76696625
vt 0.647641875 0.76696625
vt 0.647641875 0.5511431250000001
vt 0.799691875 0.5511431250000001
vt 0.191493125 0.76696625
vt 0.18570625 0.82601
vt 0.04523 0.82601
vt 0.039443125 0.76696625
vt 0.16922625 0.883001875
vt 0.144561875 0.9369587500000001
vt 0.086375 0.9369587500000001
vt 0.06171 0.883001875
vt 0.945955 0.82601
vt 0.929475 0.883001875
vt 0.82195875 0.883001875
vt 0.80547875 0.82601
vt 0.90481125 0.9369587500000001
vt 0.875716875 0.988661875
vt 0.84662375 0.9369587500000001
vt 0.951741875 0.76696625
vt 0.945955 0.82601
vt 0.80547875 0.82601
vt 0.799691875 0.76696625
vt 0.929475 0.883001875
vt 0.90481125 0.9369587500000001
vt 0.84662375 0.9369587500000001
vt 0.82195875 0.883001875
vt 0.799691875 0.76696625
vt 0.793905 0.82601
vt 0.65342875 0.82601
vt 0.647641875 0.76696625
vt 0.777425 0.883001875
vt 0.75276125 0.9369587500000001
vt 0.69457375 0.936958125
vt 0.66991 0.883001875
vt 0.793905 0.82601
vt 0.777425 0.883001875
vt 0.66991 0.883001875
vt 0.65342875 0.82601
vt 0.75276125 0.9369587500000001
vt 0.723666875 0.988661875
vt 0.69457375 0.936958125
vt 0.647641875 0.76696625
vt 0.641855 0.82601
vt 0.50138 0.82601
vt 0.495593125 0.76696625
vt 0.625375 0.883001875
vt 0.60071125 0.936958125
vt 0.54252375 0.936958125
vt 0.51786 0.883001875
vt 0.641855 0.82601
vt 0.625375 0.883001875
vt 0.51786 0.883001875
vt 0.50138 0.82601
vt 0.60071125 0.936958125
vt 0.571616875 0.988661875
vt 0.54252375 0.936958125
vt 0.495593125 0.76696625
vt 0.343543125 0.76696625
vt 0.343543125 0.5511431250000001
vt 0.495593125 0.5511431250000001
vt 0.951741875 0.76696625
vt 0.799691875 0.76696625
vt 0.799691875 0.5511431250000001
vt 0.951741875 0.5511431250000001
vt 0.48980625 0.82601
vt 0.473325 0.883001875
vt 0.36581 0.883001875
vt 0.34933 0.82601
vt 0.44866125 0.936958125
vt 0.419568125 0.988661875
vt 0.39047375 0.9369587500000001
vt 0.191493125 0.76696625
vt 0.039443125 0.76696625
vt 0.039443125 0.5511431250000001
vt 0.191493125 0.5511431250000001
vt 0.647641875 0.76696625
vt 0.495593125 0.76696625
vt 0.495593125 0.5511431250000001
vt 0.647641875 0.5511431250000001
vt 0.495593125 0.76696625
vt 0.48980625 0.82601
vt 0.34933 0.82601
vt 0.343543125 0.76696625
vt 0.473325 0.883001875
vt 0.44866125 0.936958125
vt 0.39047375 0.9369587500000001
vt 0.36581 0.883001875
vt 0.65625 0.46875
vt 0.5 0.46875
vt 0.492188125 0.460938125
vt 0.664061875 0.460938125
vt 0.320311875 0.46875
vt 0.164061875 0.46875
vt 0.164061875 0.460938125
vt 0.328125 0.460938125
vt 0.984375 0.46875
vt 0.835938125 0.46875
vt 0.828125 0.460938125
vt 0.992188125 0.460938125
vt 0.820311875 0.46875
vt 0.664061875 0.46875
vt 0.664061875 0.460938125
vt 0.828125 0.460938125
vt 0.484375 0.46875
vt 0.335938125 0.46875
vt 0.328125 0.460938125
vt 0.492188125 0.460938125
vt 0.15625 0.46875
vt 0 0.46875
vt -0.007811875 0.460938125
vt 0.164061875 0.460938125
vt 0.164061875 0.460938125
vt -0.007811875 0.460938125
vt -0.007811875 0.421875
vt 0.164061875 0.421875
vt 0.828125 0.460938125
vt 0.664061875 0.460938125
vt 0.664061875 0.421875
vt 0.828125 0.421875
vt 0.328125 0.460938125
vt 0.164061875 0.460938125
vt 0.164061875 0.421875
vt 0.328125 0.421875
vt 0.992188125 0.460938125
vt 0.828125 0.460938125
vt 0.828125 0.421875
vt 0.992188125 0.421875
vt 0.664061875 0.460938125
vt 0.492188125 0.460938125
vt 0.492188125 0.421875
vt 0.664061875 0.421875
vt 0.492188125 0.460938125
vt 0.328125 0.460938125
vt 0.328125 0.421875
vt 0.492188125 0.421875
vt 0.585938125 0.140625
vt 0.5 0
vt 0.664061875 0
vt 0.335938125 0
vt 0.25 0.140625
vt 0.25 0.07031187500000002
vt 0.265625 0.046875
vt 0.414061875 0.140625
vt 0.335938125 0
vt 0.5 0
vt 0.75 0.140625
vt 0.664061875 0
vt 0.71875 0.023438124999999976
vt 0.734375 0.054688124999999976
vt 0.085938125 0.140625
vt 0 0
vt 0.164061875 0
vt 1 0.007811875000000024
vt 0.914061875 0.14843812499999998
vt 0.835938125 0.007811875000000024
vt 0.476561875 0.273438125
vt 0.476561875 0.304688125
vt 0.03125 0.304688125
vt 0.03125 0.273438125
vt 0.25 0.140625
vt 0.164061875 0
vt 0.234375 0.046875
vt 0.25 0.07031187500000002
vt 0.164061875 0
vt 0.335938125 0
vt 0.265625 0.046875
vt 0.234375 0.046875
vt 0.476561875 0.304688125
vt 0.476561875 0.34375
vt 0.03125 0.34375
vt 0.03125 0.304688125
vt 0.664061875 0
vt 0.835938125 0
vt 0.75 0.023438124999999976
vt 0.71875 0.023438124999999976
vt 0.835938125 0
vt 0.75 0.140625
vt 0.734375 0.054688124999999976
vt 0.75 0.023438124999999976
vt 0.515625 0.289061875
vt 0.546875 0.273438125
vt 0.546875 0.304688125
vt 0.03125 0.273438125
vt 0.03125 0.304688125
vt 0 0.289061875
vt 1 0.273438125
vt 1 0.304688125
vt 0.546875 0.304688125
vt 0.546875 0.273438125
vt 1 0.234375
vt 1 0.273438125
vt 0.546875 0.273438125
vt 0.546875 0.234375
vt 0.476561875 0.234375
vt 0.476561875 0.273438125
vt 0.03125 0.273438125
vt 0.03125 0.234375
vt 1 0.304688125
vt 1 0.34375
vt 0.546875 0.34375
vt 0.546875 0.304688125
vn 0.4718901021377938 0.19621732041967643 0.8595455163466941
vn 0.2663245397576007 0.8332507711514404 0.4845249135993237
vn 0.39926837693709 0.5580619135086605 0.7274281159462247
vn 0.09331365121572358 0.9810566487661362 0.16976576335807056
vn -0.4025687882130955 0.5558115812862576 0.7273320128144436
vn -0.09419619496478243 0.9808673313752009 0.1703712273098034
vn 0.48154703587618203 0 0.8764202486472247
vn -0.4813696618568472 0 -0.8765176830183318
vn -0.47468404714893897 0.19570514371892397 0.8581226905893232
vn -0.26861138221613096 0.8317535109804236 0.4858333277119612
vn -0.8214217935124692 0.570315628032025 0.002514272299353616
vn -0.18763912207103536 0.9822378290317855 0.0006380339615691961
vn -0.9793246822095947 0.20226923657279064 0.003212903879216345
vn -0.5408585323517322 0.8411115655565979 0.0018390946847120745
vn -0.4722131820309175 0.19626286269294077 -0.8593576667743225
vn -0.266501251244427 0.8326530059899081 -0.48545448262543106
vn -0.39964026365555805 0.5586730655473405 -0.7267544740125463
vn -0.09310187864079575 0.9811066624085197 -0.1695929160406458
vn 0.475059031135939 0.1952340507496911 -0.8580224836005467
vn 0.2696084360072915 0.8313544761186012 -0.4859640174655612
vn 0.4025687882130955 0.5558115812862576 -0.7273320128144435
vn 0.09441861689609417 0.9808777997083346 -0.17018773993083336
vn 0.9999939955296469 0 -0.0034653866527296247
vn -0.9999939955296469 0 0.0034653866527296247
vn 0.8213329329125487 0.5704411571939184 -0.0030165365129912114
vn 0.18786198552017203 0.9821952277641197 -0.0006394949631573788
vn -0.4842601258553911 0 0.8749240712807717
vn 0.4844372393043055 0 -0.8748260176602106
vn 0.979324669291394 0.20226929876159783 -0.0032129263598203502
vn 0.5408558816980595 0.8411132655867197 -0.0018411101702255292
vn 0 1 0
vn 0 1 0
vn 0 1 0
vn 0 1 0
vn 0 1 0
vn 0 1 0
vn -0.9999936701403424 0 0.0035580443010318256
vn 0.4845331270591238 0 -0.8747729126935213
vn -0.4844159649211849 0 0.8748377980685776
vn -0.4817798926931486 0 -0.8762922657404769
vn 0.9999950006961942 0 -0.003162053544605631
vn 0.48149855195083824 0 0.8764468862796229
vn 0 -1 0
vn 0 -1 0
vn 0 -1 0
vn 0 -1 0
vn 0 -1 0
vn 0 -1 0
vn -0.9999921651354728 0 0.0039584931059098456
vn 0 -1 0
vn 0 -1 0
vn 0.48493296547575415 0 -0.8745513243914799
vn 0 -1 0
vn 0 -1 0
vn 0 -1 0
vn 0 -1 0
vn -0.4849329654757542 0 0.8745513243914796
vn 0.9999921651354728 0 -0.003958493105909517
vn 0.4809270472921988 0 0.8767606145253147
vn -0.4809270472921987 0 -0.8767606145253147
usemtl m_e85b5b89-8fc2-8d6a-bdd0-4cc9cdb76364
f 1/1/1 2/2/1 3/3/1 4/4/1
f 5/5/2 6/6/2 7/7/2 8/8/2
f 2/9/3 5/10/3 8/11/3 3/12/3
f 6/13/4 9/14/4 7/15/4
f 3/16/5 8/17/5 10/18/5 11/19/5
f 7/20/6 9/21/6 12/22/6
f 1/23/7 4/24/7 13/25/7 14/26/7
f 15/27/8 16/28/8 17/29/8 18/30/8
f 4/31/9 3/32/9 11/33/9 19/34/9
f 8/35/10 7/36/10 12/37/10 10/38/10
f 11/39/11 10/40/11 20/41/11 21/42/11
f 12/43/12 9/44/12 22/45/12
f 19/46/13 11/47/13 21/48/13 15/49/13
f 10/50/14 12/51/14 22/52/14 20/53/14
f 15/54/15 21/55/15 23/56/15 16/57/15
f 20/58/16 22/59/16 24/60/16 25/61/16
f 21/62/17 20/63/17 25/64/17 23/65/17
f 22/66/18 9/67/18 24/68/18
f 16/69/19 23/70/19 26/71/19 27/72/19
f 25/73/20 24/74/20 28/75/20 29/76/20
f 23/77/21 25/78/21 29/79/21 26/80/21
f 24/81/22 9/82/22 28/83/22
f 27/84/23 1/85/23 14/86/23 30/87/23
f 19/88/24 15/89/24 18/90/24 31/91/24
f 26/92/25 29/93/25 5/94/25 2/95/25
f 28/96/26 9/97/26 6/98/26
f 4/99/27 19/100/27 31/101/27 13/102/27
f 16/103/28 27/104/28 30/105/28 17/106/28
f 27/107/29 26/108/29 2/109/29 1/110/29
f 29/111/30 28/112/30 6/113/30 5/114/30
f 30/115/31 14/116/31 32/117/31 33/118/31
f 13/119/32 31/120/32 34/121/32 35/122/32
f 18/123/33 17/124/33 36/125/33 37/126/33
f 17/127/34 30/128/34 33/129/34 36/130/34
f 14/131/35 13/132/35 35/133/35 32/134/35
f 31/135/36 18/136/36 37/137/36 34/138/36
f 34/139/37 37/140/37 38/141/37 39/142/37
f 36/143/38 33/144/38 40/145/38 41/146/38
f 35/147/39 34/148/39 39/149/39 42/150/39
f 37/151/40 36/152/40 41/153/40 38/154/40
f 33/155/41 32/156/41 43/157/41 40/158/41
f 32/159/42 35/160/42 42/161/42 43/162/42
f 38/163/43 41/164/43 44/165/43
f 43/166/44 44/167/44 45/168/44 46/169/44
f 43/170/45 42/171/45 44/172/45
f 38/173/46 44/174/46 47/175/46 48/176/46
f 41/177/47 40/178/47 44/179/47
f 42/180/48 39/181/48 44/182/48
f 49/183/49 48/184/49 50/185/49 51/186/49
f 44/187/50 40/188/50 52/189/50 45/190/50
f 40/191/51 43/192/51 46/193/51 52/194/51
f 48/195/52 47/196/52 53/197/52 50/198/52
f 44/199/53 39/200/53 49/201/53 47/202/53
f 39/203/54 38/204/54 48/205/54 49/206/54
f 54/207/55 55/208/55 56/209/55
f 51/210/56 50/211/56 53/212/56
f 46/213/57 45/214/57 56/215/57 55/216/57
f 52/217/58 46/218/58 55/219/58 54/220/58
f 47/221/59 49/222/59 51/223/59 53/224/59
f 45/225/60 52/226/60 54/227/60 56/228/60