# Made in Blockbench 5.1.3
mtllib Transistor.mtl

o Transistor_Sphere.004
v -0.01500170270270271 0.009434889133054512 0.017181028662420363
v -0.031071810810810847 0.009434889133054512 0.006751092356687891
v -0.031071810810810847 -0.12161699999999999 0.006751092356687891
v -0.01500170270270271 -0.12161699999999999 0.017181028662420363
v -0.01500170270270271 0.009434889133054512 -0.003718652866242001
v -0.01500170270270271 -0.12161699999999999 -0.003718652866242001
v 0.072723 0.009434889133054512 0.017181028662420363
v 0.05665289189189186 0.009434889133054512 0.006751092356687891
v 0.05665289189189186 -0.12161699999999999 0.006751092356687891
v 0.072723 -0.12161699999999999 0.017181028662420363
v 0.072723 0.009434889133054512 -0.003718652866242001
v 0.072723 -0.12161699999999999 -0.003718652866242001
v 0.05971386486486488 0.0515774323385553 -0.013352410828025529
v 0.05971386486486488 0.14249 -0.013352410828025529
v 0.05971386486486488 0.14249 0.042499499999999975
v 0.05971386486486488 0.0515774323385553 0.042499499999999975
v -0.02241064864864859 0.0515774323385553 0.042499499999999975
v -0.02241064864864859 0.14249 0.042499499999999975
v -0.10453516216216216 0.14249 0.042499499999999975
v -0.10453516216216216 0.0515774323385553 0.042499499999999975
v -0.10453516216216216 0.14249 -0.013352410828025529
v -0.10453516216216216 0.0515774323385553 -0.013352410828025529
v -0.02241064864864859 0.0515774323385553 -0.06375050000000002
v -0.02241064864864859 0.14249 -0.06375050000000002
v 0.03498259459459461 0.0515774323385553 0.017181028662420363
v 0.03498259459459461 0.0515774323385553 -0.003718652866242001
v -0.10429167567567571 0.009434889133054512 0.017181028662420363
v -0.120327 0.009434889133054512 0.006751092356687891
v -0.120327 -0.12161699999999999 0.006751092356687891
v -0.10429167567567571 -0.12161699999999999 0.017181028662420363
v -0.10429167567567571 0.009434889133054512 -0.003718652866242001
v -0.10429167567567571 -0.12161699999999999 -0.003718652866242001
v -0.06731651351351346 0.0515774323385553 -0.003718652866242001
v -0.06731651351351346 0.0515774323385553 0.017181028662420363
v 0.0189472702702703 0.0515774323385553 0.006751092356687891
v -0.031071810810810847 0.0515774323385553 0.006751092356687891
v -0.01500170270270271 0.0515774323385553 -0.003718652866242001
v -0.08338662162162158 0.0515774323385553 0.006751092356687891
v -0.01500170270270271 0.0515774323385553 0.017181028662420363
vt 0.585938 0.046875
vt 0.585938 0.08203099999999997
vt 0.089844 0.08984400000000003
vt 0.089844 0.05468799999999996
vt 0.585938 0.003905999999999965
vt 0.585938 0.046875
vt 0.089844 0.05468799999999996
vt 0.089844 0.011719000000000035
vt 0.585938 0.08203099999999997
vt 0.585938 0.13281200000000004
vt 0.089844 0.13281200000000004
vt 0.089844 0.08984400000000003
vt 0.59375 0.046875
vt 0.59375 0.08984400000000003
vt 0.089844 0.09765599999999997
vt 0.089844 0.05468799999999996
vt 0.59375 0.003905999999999965
vt 0.59375 0.046875
vt 0.089844 0.05468799999999996
vt 0.089844 0.011719000000000035
vt 0.59375 0.08984400000000003
vt 0.59375 0.140625
vt 0.089844 0.140625
vt 0.089844 0.09765599999999997
vt 0.6875 0.171875
vt 0.6875 0.578125
vt 0.546875 0.578125
vt 0.546875 0.171875
vt 0.34375 0.171875
vt 0.34375 0.578125
vt 0.140625 0.578125
vt 0.140625 0.171875
vt 0.140625 0.171875
vt 0.140625 0.578125
vt 0 0.578125
vt 0 0.171875
vt 0.234375 0.578125
vt 0.234375 1
vt 0 1
vt 0 0.578125
vt 0.734375 0.578125
vt 0.78125 0.515625
vt 0.84375 0.515625
vt 0.859375 0.578125
vt 0.6875 1
vt 0.484375 1
vt 0.484375 0.875
vt 0.6875 0.75
vt 0.90625 1
vt 0.6875 1
vt 0.6875 0.75
vt 0.90625 0.875
vt 0.734375 0.578125
vt 0.734375 0.359375
vt 0.78125 0.515625
vt 0.484375 0.578125
vt 0.484375 1
vt 0.234375 1
vt 0.234375 0.578125
vt 0.546875 0.171875
vt 0.546875 0.578125
vt 0.34375 0.578125
vt 0.34375 0.171875
vt 0.578125 0.046875
vt 0.578125 0.08203099999999997
vt 0.089844 0.08984400000000003
vt 0.089844 0.05468799999999996
vt 0.578125 0.003905999999999965
vt 0.578125 0.046875
vt 0.089844 0.05468799999999996
vt 0.089844 0.011719000000000035
vt 0.578125 0.08203099999999997
vt 0.578125 0.13281200000000004
vt 0.089844 0.13281200000000004
vt 0.089844 0.08984400000000003
vt 0.578125 0.046875
vt 0.578125 0.003905999999999965
vt 0.753906 0.003905999999999965
vt 0.753906 0.046875
vt 0.59375 0.08984400000000003
vt 0.59375 0.046875
vt 0.765625 0.046875
vt 0.765625 0.08984400000000003
vt 0.585938 0.13281200000000004
vt 0.585938 0.08203099999999997
vt 0.746094 0.08203099999999997
vt 0.746094 0.125
vt 0.578125 0.13281200000000004
vt 0.578125 0.08203099999999997
vt 0.753906 0.08203099999999997
vt 0.753906 0.125
vt 0.585938 0.08203099999999997
vt 0.585938 0.046875
vt 0.746094 0.046875
vt 0.746094 0.08203099999999997
vt 0.59375 0.046875
vt 0.59375 0.003905999999999965
vt 0.765625 0.003905999999999965
vt 0.765625 0.046875
vt 0.578125 0.08203099999999997
vt 0.578125 0.046875
vt 0.753906 0.046875
vt 0.753906 0.08203099999999997
vt 0.59375 0.140625
vt 0.59375 0.08984400000000003
vt 0.765625 0.08984400000000003
vt 0.765625 0.13281200000000004
vt 0.585938 0.046875
vt 0.585938 0.003905999999999965
vt 0.746094 0.003905999999999965
vt 0.746094 0.046875
vt 0.8125 0.46875
vt 0.78125 0.515625
vt 0.734375 0.359375
vt 0.78125 0.375
vt 0.78125 0.375
vt 0.84375 0.375
vt 0.8125 0.46875
vt 0.84375 0.25
vt 0.78125 0.375
vt 0.734375 0.359375
vt 0.78125 0.25
vt 0.78125 0.25
vt 0.734375 0.15625
vt 0.8125 0.203125
vt 0.734375 0.359375
vt 0.734375 0.15625
vt 0.859375 0.15625
vt 0.8125 0.203125
vt 0.96875 0.359375
vt 0.84375 0.25
vt 0.8125 0.203125
vt 0.859375 0.15625
vt 0.78125 0.375
vt 0.84375 0.25
vt 0.8125 0.34375
vt 0.8125 0.34375
vt 0.84375 0.25
vt 0.96875 0.359375
vt 0.8125 0.34375
vt 0.96875 0.359375
vt 0.84375 0.375
vt 0.84375 0.515625
vt 0.84375 0.375
vt 0.96875 0.359375
vt 0.8125 0.46875
vt 0.84375 0.375
vt 0.84375 0.515625
vt 0.96875 0.359375
vt 0.859375 0.578125
vt 0.84375 0.515625
vn -0.5444145493622542 0 0.8388163079260522
vn 1 0 0
vn -0.5458741197628154 0 -0.8378672003206542
vn -0.5444145493622544 0 0.8388163079260523
vn 1 0 0
vn -0.5458741197628156 0 -0.8378672003206544
vn 1 0 0
vn 0 0 1
vn -1 0 0
vn 0.5230426172175251 0 -0.8523065297029241
vn 0 -1 0
vn 0 1 0
vn 0 1 0
vn 0 -1 0
vn -0.5230426172175247 0 -0.8523065297029244
vn 0 0 1
vn -0.5452446746542675 0 0.8382769499164116
vn 1 0 0
vn -0.5467045837965177 0 -0.8373255627627025
vn 0.751688201424754 -0.6595186485906358 0
vn -0.48935253755256125 -0.43823561058808824 0.7539785431982498
vn -0.5458741197628155 0 -0.8378672003206543
vn -0.4930170531313047 0.4321579834623337 -0.755098445668837
vn -0.5444145493622543 0 0.8388163079260522
vn 0.7449432917704597 0.667127792889932 0
vn -0.49185943292839884 0.43154923529016753 0.756200737740863
vn -0.4904988725645325 -0.4388573514551483 -0.7528712247700101
vn 1 0 0
vn 0 -1 0
vn 0 -1 0
vn 0 -1 0
vn 0 -1 0
vn 0 -1 0
vn 0 -1 0
vn 0 -1 0
vn 0 -1 0
vn 0 -1 0
vn 0 -1 0
vn 0 -1 0
vn 0 -1 0
usemtl m_1a05b75f-b35d-ce6a-2d9c-46e0b03f7d05
f 1/1/1 2/2/1 3/3/1 4/4/1
f 5/5/2 1/6/2 4/7/2 6/8/2
f 2/9/3 5/10/3 6/11/3 3/12/3
f 7/13/4 8/14/4 9/15/4 10/16/4
f 11/17/5 7/18/5 10/19/5 12/20/5
f 8/21/6 11/22/6 12/23/6 9/24/6
f 13/25/7 14/26/7 15/27/7 16/28/7
f 17/29/8 18/30/8 19/31/8 20/32/8
f 20/33/9 19/34/9 21/35/9 22/36/9
f 23/37/10 24/38/10 14/39/10 13/40/10
f 16/41/11 25/42/11 26/43/11 13/44/11
f 18/45/12 15/46/12 14/47/12 24/48/12
f 19/49/13 18/50/13 24/51/13 21/52/13
f 16/53/14 17/54/14 25/55/14
f 22/56/15 21/57/15 24/58/15 23/59/15
f 16/60/16 15/61/16 18/62/16 17/63/16
f 27/64/17 28/65/17 29/66/17 30/67/17
f 31/68/18 27/69/18 30/70/18 32/71/18
f 28/72/19 31/73/19 32/74/19 29/75/19
f 27/76/20 31/77/20 33/78/20 34/79/20
f 8/80/21 7/81/21 25/82/21 35/83/21
f 5/84/22 2/85/22 36/86/22 37/87/22
f 31/88/23 28/89/23 38/90/23 33/91/23
f 2/92/24 1/93/24 39/94/24 36/95/24
f 7/96/25 11/97/25 26/98/25 25/99/25
f 28/100/26 27/101/26 34/102/26 38/103/26
f 11/104/27 8/105/27 35/106/27 26/107/27
f 1/108/28 5/109/28 37/110/28 39/111/28
f 35/112/29 25/113/29 17/114/29 39/115/29
f 39/116/30 37/117/30 35/118/30
f 33/119/31 39/120/31 17/121/31 34/122/31
f 34/123/32 20/124/32 38/125/32 17/126/32
f 20/127/33 22/128/33 38/129/33
f 23/130/34 33/131/34 38/132/34 22/133/34
f 39/134/35 33/135/35 36/136/35
f 36/137/36 33/138/36 23/139/36
f 36/140/37 23/141/37 37/142/37
f 26/143/38 37/144/38 23/145/38
f 35/146/39 37/147/39 26/148/39
f 23/149/40 13/150/40 26/151/40