# Made in Blockbench 5.1.3
mtllib Capacitor.mtl

o Capacitor_Cylinder
v 0.028805060301321045 0.008151413142034238 0.08986
v 0.028805060301321045 0.14763600000000002 0.08986
v -0.05582624999999998 0.14763600000000002 0.041076118652917354
v -0.05582624999999998 0.008151413142034238 0.041076118652917354
v -0.05582624999999998 0.14763600000000002 -0.05651711865291738
v -0.05582624999999998 0.008151413142034238 -0.05651711865291738
v 0.028805060301321045 0.14763600000000002 -0.10530100000000003
v 0.028805060301321045 0.008151413142034238 -0.10530100000000003
v 0.11341125000000003 0.14763600000000002 -0.05651711865291738
v 0.11341125000000003 0.008151413142034238 -0.05651711865291738
v 0.028805060301321045 0.14763600000000002 -0.007733237305834757
v 0.11341125000000003 0.14763600000000002 0.041076118652917354
v 0.11341125000000003 0.008151413142034238 0.041076118652917354
v -0.05582624999999998 -0.02437253378846873 -0.05651711865291738
v 0.028805060301321045 -0.02437253378846873 -0.007733237305834757
v -0.027666054438177226 -0.02437253378846873 -0.007733237305834757
v -0.04035195877245058 -0.02437253378846873 -0.015044450854979755
v 0.11341125000000003 -0.02437253378846873 0.041076118652917354
v 0.11341125000000003 -0.00996681908368446 0.041076118652917354
v 0.028805060301321045 -0.00996681908368446 0.08986
v 0.028805060301321045 -0.02437253378846873 0.08986
v 0.1044934360620454 -0.0006783582591071615 0.035930247095679414
v 0.028805060301321045 -0.0006783582591071615 0.0795682568855241
v 0.11341125000000003 -0.02437253378846873 -0.05651711865291738
v 0.11341125000000003 -0.00996681908368446 -0.05651711865291738
v 0.1044934360620454 -0.0006783582591071615 -0.05137124709567942
v 0.028805060301321045 -0.02437253378846873 -0.10530100000000003
v 0.028805060301321045 -0.00996681908368446 -0.10530100000000003
v 0.028805060301321045 -0.0006783582591071615 -0.09503473149719358
v -0.05582624999999998 -0.00996681908368446 -0.05651711865291738
v -0.04690843606204537 -0.0007070263480719076 -0.05137124709567942
v -0.05582624999999998 -0.02437253378846873 0.041076118652917354
v -0.05582624999999998 -0.00996681908368446 0.041076118652917354
v -0.04690843606204537 -0.0006783582591071615 0.035930247095679414
v 0.0837940594849339 -0.02437253378846873 -0.007733237305834757
v 0.09647996381920733 -0.02437253378846873 -0.00019275225166427625
v -0.04035195877245058 -0.02437253378846873 -0.00039654914502024186
v -0.04035195877245058 -0.121113 -0.015044450854979755
v -0.04035195877245058 -0.121113 -0.00039654914502024186
v 0.09647996381920733 -0.02437253378846873 -0.015248247748335744
v -0.027666054438177226 -0.121113 -0.007733237305834757
v 0.0837940594849339 -0.121113 -0.007733237305834757
v 0.09647996381920733 -0.121113 -0.00019275225166427625
v 0.09647996381920733 -0.121113 -0.015248247748335744
vt 0.171875 0.4375
vt 0.171875 0.84375
vt 0 0.84375
vt 0 0.4375
vt 1 0.4375
vt 1 0.84375
vt 0.835938 0.84375
vt 0.835938 0.4375
vt 0.835938 0.4375
vt 0.835938 0.84375
vt 0.671875 0.84375
vt 0.671875 0.4375
vt 0.671875 0.4375
vt 0.671875 0.84375
vt 0.5 0.84375
vt 0.5 0.4375
vt 0.5 0.84375
vt 0.671875 0.84375
vt 0.585938 0.992188
vt 0.5 0.4375
vt 0.5 0.84375
vt 0.335938 0.84375
vt 0.335938 0.4375
vt 0.335938 0.4375
vt 0.335938 0.84375
vt 0.171875 0.84375
vt 0.171875 0.4375
vt 0.664062 0.15625
vt 0.832031 0.15625
vt 0.746094 0.203125
vt 0.722656 0.203125
vt 0.335938 0.328125
vt 0.335938 0.36718800000000007
vt 0.171875 0.36718800000000007
vt 0.171875 0.328125
vt 0.335938 0.38281199999999993
vt 0.328125 0.40625
vt 0.179688 0.40625
vt 0.171875 0.38281199999999993
vt 0.5 0.328125
vt 0.5 0.36718800000000007
vt 0.335938 0.36718800000000007
vt 0.335938 0.328125
vt 0.5 0.38281199999999993
vt 0.492188 0.40625
vt 0.34375 0.40625
vt 0.335938 0.38281199999999993
vt 0.671875 0.328125
vt 0.671875 0.36718800000000007
vt 0.5 0.36718800000000007
vt 0.5 0.328125
vt 0.671875 0.38281199999999993
vt 0.664062 0.40625
vt 0.515625 0.40625
vt 0.5 0.38281199999999993
vt 0.835938 0.328125
vt 0.835938 0.36718800000000007
vt 0.671875 0.36718800000000007
vt 0.671875 0.328125
vt 0.835938 0.38281199999999993
vt 0.828125 0.40625
vt 0.679688 0.40625
vt 0.671875 0.38281199999999993
vt 1 0.328125
vt 1 0.36718800000000007
vt 0.835938 0.36718800000000007
vt 0.835938 0.328125
vt 1 0.38281199999999993
vt 0.992188 0.40625
vt 0.84375 0.40625
vt 0.835938 0.38281199999999993
vt 0.171875 0.328125
vt 0.171875 0.36718800000000007
vt 0 0.36718800000000007
vt 0 0.328125
vt 0.171875 0.38281199999999993
vt 0.164062 0.40625
vt 0.015625 0.40625
vt 0 0.38281199999999993
vt 0.328125 0.40625
vt 0.335938 0.4375
vt 0.171875 0.4375
vt 0.179688 0.40625
vt 0.492188 0.40625
vt 0.5 0.4375
vt 0.335938 0.4375
vt 0.34375 0.40625
vt 0.664062 0.40625
vt 0.671875 0.4375
vt 0.5 0.4375
vt 0.515625 0.40625
vt 0.828125 0.40625
vt 0.835938 0.4375
vt 0.671875 0.4375
vt 0.679688 0.40625
vt 0.992188 0.40625
vt 1 0.4375
vt 0.835938 0.4375
vt 0.84375 0.40625
vt 0.164062 0.40625
vt 0.171875 0.4375
vt 0 0.4375
vt 0.015625 0.40625
vt 0.996094 0.15625
vt 0.832031 0.15625
vt 0.914062 0.109375
vt 0.9375 0.109375
vt 0.914062 0.30078099999999997
vt 0.746094 0.30078099999999997
vt 0.832031 0.15625
vt 0.664062 0.15625
vt 0.746094 0.011719000000000035
vt 0.832031 0.15625
vt 0.996094 0.15625
vt 0.914062 0.30078099999999997
vt 0.832031 0.15625
vt 0.746094 0.011719000000000035
vt 0.914062 0.011719000000000035
vt 0.832031 0.15625
vt 0.414062 0.13281200000000004
vt 0.414062 0.16406200000000004
vt 0.132812 0.16406200000000004
vt 0.132812 0.13281200000000004
vt 0.832031 0.15625
vt 0.914062 0.011719000000000035
vt 0.925781 0.08593799999999996
vt 0.914062 0.109375
vt 0.914062 0.011719000000000035
vt 0.996094 0.15625
vt 0.9375 0.109375
vt 0.925781 0.08593799999999996
vt 0.414062 0.16406200000000004
vt 0.414062 0.1875
vt 0.132812 0.1875
vt 0.132812 0.16406200000000004
vt 0.832031 0.15625
vt 0.746094 0.30078099999999997
vt 0.734375 0.22656200000000004
vt 0.746094 0.203125
vt 0.746094 0.30078099999999997
vt 0.664062 0.15625
vt 0.722656 0.203125
vt 0.734375 0.22656200000000004
vt 0.414062 0.16406200000000004
vt 0.414062 0.1875
vt 0.132812 0.1875
vt 0.132812 0.16406200000000004
vt 0.414062 0.13281200000000004
vt 0.414062 0.16406200000000004
vt 0.132812 0.16406200000000004
vt 0.132812 0.13281200000000004
vt 0.414062 0.109375
vt 0.414062 0.13281200000000004
vt 0.132812 0.13281200000000004
vt 0.132812 0.109375
vt 0.414062 0.109375
vt 0.414062 0.13281200000000004
vt 0.132812 0.13281200000000004
vt 0.132812 0.109375
vt 0.835938 0.84375
vt 1 0.84375
vt 0.921875 0.992188
vt 0.335938 0.84375
vt 0.5 0.84375
vt 0.421875 0.992188
vt 0 0.84375
vt 0.171875 0.84375
vt 0.085938 0.992188
vt 0.671875 0.84375
vt 0.835938 0.84375
vt 0.75 0.992188
vt 0.171875 0.84375
vt 0.335938 0.84375
vt 0.25 0.992188
vn -0.49940079728768894 0 0.8663710773498968
vn -1 0 0
vn -0.499400797287689 0 -0.8663710773498966
vn 0.4995120823308707 0 -0.8663069199801405
vn 0 1 0
vn 1 0 0
vn 0.4995120823308706 0 0.8663069199801406
vn 0 -1 0
vn 0.4995120823308705 0 0.8663069199801405
vn 0.3604080525502762 0.6923434143913391 0.6251132954959925
vn 1 0 0
vn 0.7213527296899984 0.6925678590353352 0
vn 0.49951208233087063 0 -0.8663069199801404
vn 0.36094662868576566 0.6915485103492317 -0.6256821789647988
vn -0.49940079728768894 0 -0.8663710773498967
vn -0.3600961016897375 0.6935453538440364 -0.6239596458980379
vn -1 0 0
vn -0.7214156475869365 0.692502282815082 -0.0002274040924032449
vn -0.4994007972876888 0 0.8663710773498967
vn -0.3602314678322586 0.6925245886498045 0.6250143867934846
vn 0.3515584175129621 -0.7103945722727292 0.6097099562588987
vn 0.7035902957732671 -0.7106058652260664 0
vn 0.35193128183761807 -0.7096542628106255 -0.6103566171828063
vn -0.3520677706943262 -0.709226793398979 -0.6107746232149217
vn -0.7035902957732677 -0.7106058652260658 0
vn -0.35140032330760956 -0.7105527889062246 0.6096167213560449
vn 0 -1 0
vn 0 -1 0
vn 0 -1 0
vn 0 -1 0
vn 0 -1 0
vn -1 0 0
vn 0 -1 0
vn 0 -1 0
vn 0.4993341236257557 0 -0.8664095065169235
vn 0 -1 0
vn 0 -1 0
vn -0.5109509789831089 0 0.8596098516630685
vn 1 0 0
vn 0.5006384600238443 0 0.8656564747894824
vn -0.5096737620175822 0 -0.8603677448108137
vn 0 1 0
vn 0 1 0
vn 0 1 0
vn 0 1 0
vn 0 1 0
usemtl m_2243995f-fee7-87a6-a972-b38d600e7881
f 1/1/1 2/2/1 3/3/1 4/4/1
f 4/5/2 3/6/2 5/7/2 6/8/2
f 6/9/3 5/10/3 7/11/3 8/12/3
f 8/13/4 7/14/4 9/15/4 10/16/4
f 9/17/5 7/18/5 11/19/5
f 10/20/6 9/21/6 12/22/6 13/23/6
f 13/24/7 12/25/7 2/26/7 1/27/7
f 14/28/8 15/29/8 16/30/8 17/31/8
f 18/32/9 19/33/9 20/34/9 21/35/9
f 19/36/10 22/37/10 23/38/10 20/39/10
f 24/40/11 25/41/11 19/42/11 18/43/11
f 25/44/12 26/45/12 22/46/12 19/47/12
f 27/48/13 28/49/13 25/50/13 24/51/13
f 28/52/14 29/53/14 26/54/14 25/55/14
f 14/56/15 30/57/15 28/58/15 27/59/15
f 30/60/16 31/61/16 29/62/16 28/63/16
f 32/64/17 33/65/17 30/66/17 14/67/17
f 33/68/18 34/69/18 31/70/18 30/71/18
f 21/72/19 20/73/19 33/74/19 32/75/19
f 20/76/20 23/77/20 34/78/20 33/79/20
f 22/80/21 13/81/21 1/82/21 23/83/21
f 26/84/22 10/85/22 13/86/22 22/87/22
f 29/88/23 8/89/23 10/90/23 26/91/23
f 31/92/24 6/93/24 8/94/24 29/95/24
f 34/96/25 4/97/25 6/98/25 31/99/25
f 23/100/26 1/101/26 4/102/26 34/103/26
f 18/104/27 15/105/27 35/106/27 36/107/27
f 21/108/28 32/109/28 15/110/28
f 14/111/29 27/112/29 15/113/29
f 18/114/30 21/115/30 15/116/30
f 27/117/31 24/118/31 15/119/31
f 37/120/32 17/121/32 38/122/32 39/123/32
f 15/124/33 24/125/33 40/126/33 35/127/33
f 24/128/34 18/129/34 36/130/34 40/131/34
f 17/132/35 16/133/35 41/134/35 38/135/35
f 15/136/36 32/137/36 37/138/36 16/139/36
f 32/140/37 14/141/37 17/142/37 37/143/37
f 36/144/38 35/145/38 42/146/38 43/147/38
f 40/148/39 36/149/39 43/150/39 44/151/39
f 16/152/40 37/153/40 39/154/40 41/155/40
f 35/156/41 40/157/41 44/158/41 42/159/41
f 5/160/42 3/161/42 11/162/42
f 12/163/43 9/164/43 11/165/43
f 3/166/44 2/167/44 11/168/44
f 7/169/45 5/170/45 11/171/45
f 2/172/46 12/173/46 11/174/46