# Made in Blockbench 5.1.3
mtllib LEDBlue.mtl

o LEDBlue_Sphere
v 0.07994375 0.1530056795524766 0.04078625
v 0.07325875 0.18523359318174507 0.037099375
v -0.007374375 0.18523359318174507 0.081425625
v -0.0073325 0.1530056795524766 0.088759375
v 0.05429125 0.21254427758198963 0.02655875
v 0.025881875 0.2307968699510798 0.010808125
v -0.007541875 0.2307968699510798 0.02916375
v -0.00741625 0.21254427758198963 0.060505
v -0.007666875 0.237195 -0.007748125
v -0.069374375 0.21254427758198963 0.026158125
v -0.088300625 0.18523359318174507 0.036578125
v -0.04109 0.2307968699510798 0.0106075
v -0.0073325 0.03352288645360625 0.088759375
v 0.07994375 0.03352288645360625 0.04078625
v -0.0952775 0.1530056795524766 -0.0562825
v -0.00800125 0.1530056795524766 -0.104255625
v -0.00800125 0.03352288645360625 -0.104255625
v -0.0952775 0.03352288645360625 -0.0562825
v -0.094943125 0.1530056795524766 0.040225
v -0.069625 0.21254427758198963 -0.042055
v -0.088635 0.18523359318174507 -0.052595
v -0.041215625 0.2307968699510798 -0.026304375
v -0.007959375 0.18523359318174507 -0.09692125
v -0.0077925 0.2307968699510798 -0.04466
v -0.0079175 0.21254427758198963 -0.076000625
v 0.07296625 0.18523359318174507 -0.052074375
v 0.079609375 0.1530056795524766 -0.05572125
v 0.025714375 0.2307968699510798 -0.02610375
v 0.054040625 0.21254427758198963 -0.04165375
v 0.079609375 0.03352288645360625 -0.05572125
v -0.094943125 0.03352288645360625 0.040225
v 0.088383125 0.03352288645360625 0.045435625
v 0.088006875 0.03352288645360625 -0.06033
v -0.10334125 0.03352288645360625 0.044834375
v -0.00729125 0.03352288645360625 0.0980175
v -0.008043125 0.03352288645360625 -0.11351375
v -0.103716875 0.03352288645360625 -0.06093125
v -0.103716875 0.02203919352048534 -0.06093125
v -0.10334125 0.02203919352048534 0.044834375
v 0.088006875 0.02203919352048534 -0.06033
v -0.008043125 0.02203919352048534 -0.11351375
v -0.00729125 0.02203919352048534 0.0980175
v 0.088383125 0.02203919352048534 0.045435625
v -0.007666875 0.02203919352048534 -0.007748125
v 0.038123125 0.02203919352048534 -0.0075875
v 0.05734125 0.02203919352048534 0.003033125
v -0.04551875 0.02203919352048534 -0.007868125
v -0.064736875 0.02203919352048534 -0.01848875
v -0.06465375 0.02203919352048534 0.002631875
v -0.064736875 -0.2136925 -0.01848875
v -0.06465375 -0.2136925 0.002631875
v 0.0572575 0.02203919352048534 -0.018128125
v -0.04551875 -0.2136925 -0.007868125
v 0.0572575 -0.2136925 -0.018128125
v 0.05734125 -0.2136925 0.003033125
v 0.038123125 -0.2136925 -0.0075875
vt 0.343543125 0.76696625
vt 0.33775625 0.82601
vt 0.19728 0.82601
vt 0.191493125 0.76696625
vt 0.32127625 0.883001875
vt 0.29661125 0.9369587500000001
vt 0.23842375 0.9369587500000001
vt 0.21376 0.883001875
vt 0.33775625 0.82601
vt 0.32127625 0.883001875
vt 0.21376 0.883001875
vt 0.19728 0.82601
vt 0.29661125 0.9369587500000001
vt 0.267518125 0.988661875
vt 0.23842375 0.9369587500000001
vt 0.18570625 0.82601
vt 0.16922625 0.883001875
vt 0.06171 0.883001875
vt 0.04523 0.82601
vt 0.144561875 0.9369587500000001
vt 0.115468125 0.988661875
vt 0.086375 0.9369587500000001
vt 0.343543125 0.76696625
vt 0.191493125 0.76696625
vt 0.191493125 0.5511431250000001
vt 0.343543125 0.5511431250000001
vt 0.799691875 0.76696625
vt 0.647641875 0.76696625
vt 0.647641875 0.5511431250000001
vt 0.799691875 0.5511431250000001
vt 0.191493125 0.76696625
vt 0.18570625 0.82601
vt 0.04523 0.82601
vt 0.039443125 0.76696625
vt 0.16922625 0.883001875
vt 0.144561875 0.9369587500000001
vt 0.086375 0.9369587500000001
vt 0.06171 0.883001875
vt 0.945955 0.82601
vt 0.929475 0.883001875
vt 0.82195875 0.883001875
vt 0.80547875 0.82601
vt 0.90481125 0.9369587500000001
vt 0.875716875 0.988661875
vt 0.84662375 0.9369587500000001
vt 0.951741875 0.76696625
vt 0.945955 0.82601
vt 0.80547875 0.82601
vt 0.799691875 0.76696625
vt 0.929475 0.883001875
vt 0.90481125 0.9369587500000001
vt 0.84662375 0.9369587500000001
vt 0.82195875 0.883001875
vt 0.799691875 0.76696625
vt 0.793905 0.82601
vt 0.65342875 0.82601
vt 0.647641875 0.76696625
vt 0.777425 0.883001875
vt 0.75276125 0.9369587500000001
vt 0.69457375 0.936958125
vt 0.66991 0.883001875
vt 0.793905 0.82601
vt 0.777425 0.883001875
vt 0.66991 0.883001875
vt 0.65342875 0.82601
vt 0.75276125 0.9369587500000001
vt 0.723666875 0.988661875
vt 0.69457375 0.936958125
vt 0.647641875 0.76696625
vt 0.641855 0.82601
vt 0.50138 0.82601
vt 0.495593125 0.76696625
vt 0.625375 0.883001875
vt 0.60071125 0.936958125
vt 0.54252375 0.936958125
vt 0.51786 0.883001875
vt 0.641855 0.82601
vt 0.625375 0.883001875
vt 0.51786 0.883001875
vt 0.50138 0.82601
vt 0.60071125 0.936958125
vt 0.571616875 0.988661875
vt 0.54252375 0.936958125
vt 0.495593125 0.76696625
vt 0.343543125 0.76696625
vt 0.343543125 0.5511431250000001
vt 0.495593125 0.5511431250000001
vt 0.951741875 0.76696625
vt 0.799691875 0.76696625
vt 0.799691875 0.5511431250000001
vt 0.951741875 0.5511431250000001
vt 0.48980625 0.82601
vt 0.473325 0.883001875
vt 0.36581 0.883001875
vt 0.34933 0.82601
vt 0.44866125 0.936958125
vt 0.419568125 0.988661875
vt 0.39047375 0.9369587500000001
vt 0.191493125 0.76696625
vt 0.039443125 0.76696625
vt 0.039443125 0.5511431250000001
vt 0.191493125 0.5511431250000001
vt 0.647641875 0.76696625
vt 0.495593125 0.76696625
vt 0.495593125 0.5511431250000001
vt 0.647641875 0.5511431250000001
vt 0.495593125 0.76696625
vt 0.48980625 0.82601
vt 0.34933 0.82601
vt 0.343543125 0.76696625
vt 0.473325 0.883001875
vt 0.44866125 0.936958125
vt 0.39047375 0.9369587500000001
vt 0.36581 0.883001875
vt 0.65625 0.46875
vt 0.5 0.46875
vt 0.492188125 0.460938125
vt 0.664061875 0.460938125
vt 0.320311875 0.46875
vt 0.164061875 0.46875
vt 0.164061875 0.460938125
vt 0.328125 0.460938125
vt 0.984375 0.46875
vt 0.835938125 0.46875
vt 0.828125 0.460938125
vt 0.992188125 0.460938125
vt 0.820311875 0.46875
vt 0.664061875 0.46875
vt 0.664061875 0.460938125
vt 0.828125 0.460938125
vt 0.484375 0.46875
vt 0.335938125 0.46875
vt 0.328125 0.460938125
vt 0.492188125 0.460938125
vt 0.15625 0.46875
vt 0 0.46875
vt -0.007811875 0.460938125
vt 0.164061875 0.460938125
vt 0.164061875 0.460938125
vt -0.007811875 0.460938125
vt -0.007811875 0.421875
vt 0.164061875 0.421875
vt 0.828125 0.460938125
vt 0.664061875 0.460938125
vt 0.664061875 0.421875
vt 0.828125 0.421875
vt 0.328125 0.460938125
vt 0.164061875 0.460938125
vt 0.164061875 0.421875
vt 0.328125 0.421875
vt 0.992188125 0.460938125
vt 0.828125 0.460938125
vt 0.828125 0.421875
vt 0.992188125 0.421875
vt 0.664061875 0.460938125
vt 0.492188125 0.460938125
vt 0.492188125 0.421875
vt 0.664061875 0.421875
vt 0.492188125 0.460938125
vt 0.328125 0.460938125
vt 0.328125 0.421875
vt 0.492188125 0.421875
vt 0.585938125 0.140625
vt 0.5 0
vt 0.664061875 0
vt 0.335938125 0
vt 0.25 0.140625
vt 0.25 0.07031187500000002
vt 0.265625 0.046875
vt 0.414061875 0.140625
vt 0.335938125 0
vt 0.5 0
vt 0.75 0.140625
vt 0.664061875 0
vt 0.71875 0.023438124999999976
vt 0.734375 0.054688124999999976
vt 0.085938125 0.140625
vt 0 0
vt 0.164061875 0
vt 1 0.007811875000000024
vt 0.914061875 0.14843812499999998
vt 0.835938125 0.007811875000000024
vt 0.476561875 0.273438125
vt 0.476561875 0.304688125
vt 0.03125 0.304688125
vt 0.03125 0.273438125
vt 0.25 0.140625
vt 0.164061875 0
vt 0.234375 0.046875
vt 0.25 0.07031187500000002
vt 0.164061875 0
vt 0.335938125 0
vt 0.265625 0.046875
vt 0.234375 0.046875
vt 0.476561875 0.304688125
vt 0.476561875 0.34375
vt 0.03125 0.34375
vt 0.03125 0.304688125
vt 0.664061875 0
vt 0.835938125 0
vt 0.75 0.023438124999999976
vt 0.71875 0.023438124999999976
vt 0.835938125 0
vt 0.75 0.140625
vt 0.734375 0.054688124999999976
vt 0.75 0.023438124999999976
vt 0.515625 0.289061875
vt 0.546875 0.273438125
vt 0.546875 0.304688125
vt 0.03125 0.273438125
vt 0.03125 0.304688125
vt 0 0.289061875
vt 1 0.273438125
vt 1 0.304688125
vt 0.546875 0.304688125
vt 0.546875 0.273438125
vt 1 0.234375
vt 1 0.273438125
vt 0.546875 0.273438125
vt 0.546875 0.234375
vt 0.476561875 0.234375
vt 0.476561875 0.273438125
vt 0.03125 0.273438125
vt 0.03125 0.234375
vt 1 0.304688125
vt 1 0.34375
vt 0.546875 0.34375
vt 0.546875 0.304688125
vn 0.47236441563748105 0.19628255958683594 0.8592700481463911
vn 0.2663255914498588 0.8330018499963789 0.4849521597451582
vn 0.3998889196760316 0.5582820469285485 0.7269181577025067
vn 0.09321681827617889 0.9810705774573608 0.1697384659938539
vn -0.4029363496883831 0.5561697862356163 0.7268545019317347
vn -0.09421824504496132 0.9808708819373037 0.17033859007337113
vn 0.4816966188226507 0 0.8763380440302851
vn -0.4816966188226508 0 -0.8763380440302851
vn -0.47545350615932847 0.19461518606142744 0.857944574454013
vn -0.2685803100868671 0.8319170628573851 0.48557040432916004
vn -0.8213833936030361 0.5703684888709126 0.0030178827464914315
vn -0.1876759295310459 0.982230796450781 0.0006387318077810223
vn -0.9793241123973383 0.2022641783124386 0.0036721994444275834
vn -0.5415070699611597 0.8406941754935776 0.001842952319920671
vn -0.4722319279495051 0.19567322469538231 -0.8594818179359025
vn -0.26632849871490194 0.8330031179032309 -0.48494838522853384
vn -0.3997486614081111 0.5586968431170432 -0.7266765753713776
vn -0.09321771035893531 0.9810707608000088 -0.16973691636980434
vn 0.4754496799454812 0.19463147108847512 -0.8579430006134882
vn 0.2688892327927605 0.8318401626437673 -0.4855311774756712
vn 0.4029363496883831 0.5561697862356163 -0.7268545019317347
vn 0.0943342670188221 0.9808597207890986 -0.1703386456431819
vn 0.9999939977848046 0 -0.0034647358289178758
vn -0.9999939977848046 0 0.0034647358289178758
vn 0.8213921625591296 0.5703558602388502 -0.0030179426166960744
vn 0.18778979747507393 0.9822088707546361 -0.0008521591243217644
vn -0.48458820768176486 0 0.874742401496449
vn 0.48458820768176486 0 -0.874742401496449
vn 0.9793322090011904 0.20223280003358934 -0.003212320566678526
vn 0.5407035199382427 0.8412096547583675 -0.0024536233824387433
vn 0 1 0
vn 0 1 0
vn 0 1 0
vn 0 1 0
vn 0 1 0
vn 0 1 0
vn -0.9999936935378361 0 0.0035514623124021072
vn 0.48440800716426474 0 -0.8748422043975392
vn -0.4844036503040805 0 0.8748446168160847
vn -0.4816510504059798 0 -0.8763630900732964
vn 0.9999936725340128 0 -0.003557371492778782
vn 0.4816442370729846 0 0.8763668346613663
vn 0 -1 0
vn 0 -1 0
vn 0 -1 0
vn 0 -1 0
vn 0 -1 0
vn 0 -1 0
vn -0.9999922551190884 0 0.003935695852124525
vn 0 -1 0
vn 0 -1 0
vn 0.48368898073927863 0 -0.8752399499059659
vn 0 -1 0
vn 0 -1 0
vn 0 -1 0
vn 0 -1 0
vn -0.48368898073927863 0 0.875239949905966
vn 0.9999921683747508 0 -0.003957674716823716
vn 0.4810655215843568 0 0.8766846433825397
vn -0.482506215486535 0 -0.8758925459306418
usemtl m_066e0be5-a483-0581-14db-26244cfb9f7c
f 1/1/1 2/2/1 3/3/1 4/4/1
f 5/5/2 6/6/2 7/7/2 8/8/2
f 2/9/3 5/10/3 8/11/3 3/12/3
f 6/13/4 9/14/4 7/15/4
f 3/16/5 8/17/5 10/18/5 11/19/5
f 7/20/6 9/21/6 12/22/6
f 1/23/7 4/24/7 13/25/7 14/26/7
f 15/27/8 16/28/8 17/29/8 18/30/8
f 4/31/9 3/32/9 11/33/9 19/34/9
f 8/35/10 7/36/10 12/37/10 10/38/10
f 11/39/11 10/40/11 20/41/11 21/42/11
f 12/43/12 9/44/12 22/45/12
f 19/46/13 11/47/13 21/48/13 15/49/13
f 10/50/14 12/51/14 22/52/14 20/53/14
f 15/54/15 21/55/15 23/56/15 16/57/15
f 20/58/16 22/59/16 24/60/16 25/61/16
f 21/62/17 20/63/17 25/64/17 23/65/17
f 22/66/18 9/67/18 24/68/18
f 16/69/19 23/70/19 26/71/19 27/72/19
f 25/73/20 24/74/20 28/75/20 29/76/20
f 23/77/21 25/78/21 29/79/21 26/80/21
f 24/81/22 9/82/22 28/83/22
f 27/84/23 1/85/23 14/86/23 30/87/23
f 19/88/24 15/89/24 18/90/24 31/91/24
f 26/92/25 29/93/25 5/94/25 2/95/25
f 28/96/26 9/97/26 6/98/26
f 4/99/27 19/100/27 31/101/27 13/102/27
f 16/103/28 27/104/28 30/105/28 17/106/28
f 27/107/29 26/108/29 2/109/29 1/110/29
f 29/111/30 28/112/30 6/113/30 5/114/30
f 30/115/31 14/116/31 32/117/31 33/118/31
f 13/119/32 31/120/32 34/121/32 35/122/32
f 18/123/33 17/124/33 36/125/33 37/126/33
f 17/127/34 30/128/34 33/129/34 36/130/34
f 14/131/35 13/132/35 35/133/35 32/134/35
f 31/135/36 18/136/36 37/137/36 34/138/36
f 34/139/37 37/140/37 38/141/37 39/142/37
f 36/143/38 33/144/38 40/145/38 41/146/38
f 35/147/39 34/148/39 39/149/39 42/150/39
f 37/151/40 36/152/40 41/153/40 38/154/40
f 33/155/41 32/156/41 43/157/41 40/158/41
f 32/159/42 35/160/42 42/161/42 43/162/42
f 38/163/43 41/164/43 44/165/43
f 43/166/44 44/167/44 45/168/44 46/169/44
f 43/170/45 42/171/45 44/172/45
f 38/173/46 44/174/46 47/175/46 48/176/46
f 41/177/47 40/178/47 44/179/47
f 42/180/48 39/181/48 44/182/48
f 49/183/49 48/184/49 50/185/49 51/186/49
f 44/187/50 40/188/50 52/189/50 45/190/50
f 40/191/51 43/192/51 46/193/51 52/194/51
f 48/195/52 47/196/52 53/197/52 50/198/52
f 44/199/53 39/200/53 49/201/53 47/202/53
f 39/203/54 38/204/54 48/205/54 49/206/54
f 54/207/55 55/208/55 56/209/55
f 51/210/56 50/211/56 53/212/56
f 46/213/57 45/214/57 56/215/57 55/216/57
f 52/217/58 46/218/58 55/219/58 54/220/58
f 47/221/59 49/222/59 51/223/59 53/224/59
f 45/225/60 52/226/60 54/227/60 56/228/60