# Made in Blockbench 5.1.3
mtllib LEDRed.mtl

o LEDRed_Sphere.011
v 0.1025525 0.15302553473942068 0.0406325
v 0.0958675 0.18525342680227477 0.03694625
v 0.015234375 0.18525342680227477 0.08122375
v 0.01527625 0.15302553473942068 0.088596875
v 0.0769 0.2125648185022521 0.0264075
v 0.04844875 0.23081739865699372 0.01066
v 0.0150675 0.23081739865699372 0.0290125
v 0.015150625 0.2125648185022521 0.0603075
v 0.014941875 0.23721625 -0.0078925
v -0.0468075 0.2125648185022521 0.026006875
v -0.06569125 0.18525342680227477 0.036425625
v -0.01848125 0.23081739865699372 0.01046
v 0.01527625 0.03354282159656144 0.088596875
v 0.1025525 0.03354282159656144 0.0406325
v -0.072668125 0.15302553473942068 -0.0564175
v 0.0146075 0.15302553473942068 -0.104381875
v 0.0146075 0.03354282159656144 -0.104381875
v -0.072668125 0.03354282159656144 -0.0564175
v -0.072334375 0.15302553473942068 0.040071875
v -0.04701625 0.2125648185022521 -0.0421925
v -0.066025625 0.18525342680227477 -0.05273125
v -0.018606875 0.23081739865699372 -0.026485
v 0.014649375 0.18525342680227477 -0.09704875
v 0.014816875 0.23081739865699372 -0.0448375
v 0.01469125 0.2125648185022521 -0.0761325
v 0.095575625 0.18525342680227477 -0.05221
v 0.102218125 0.15302553473942068 -0.055856875
v 0.04832375 0.23081739865699372 -0.026244375
v 0.076649375 0.2125648185022521 -0.041831875
v 0.102218125 0.03354282159656144 -0.055856875
v -0.072334375 0.03354282159656144 0.040071875
v 0.1109925 0.03354282159656144 0.045280625
v 0.110615625 0.03354282159656144 -0.060465
v -0.080731875 0.03354282159656144 0.04468
v 0.01527625 0.03354282159656144 0.097853125
v 0.01456625 0.03354282159656144 -0.113678125
v -0.081108125 0.03354282159656144 -0.061065625
v -0.081108125 0.022059861923762074 -0.061065625
v -0.080731875 0.022059861923762074 0.04468
v 0.110615625 0.022059861923762074 -0.060465
v 0.01456625 0.022059861923762074 -0.113678125
v 0.01527625 0.022059861923762074 0.097853125
v 0.1109925 0.022059861923762074 0.045280625
v 0.014941875 0.022059861923762074 -0.0078925
v 0.060731875 0.022059861923762074 -0.0077725
v 0.07995 0.022059861923762074 0.00288625
v -0.02291 0.022059861923762074 -0.0080125
v -0.042128125 0.022059861923762074 -0.01867125
v -0.042044375 0.022059861923762074 0.002485625
v -0.042128125 -0.213673125 -0.01867125
v -0.042044375 -0.213673125 0.002485625
v 0.079866875 0.022059861923762074 -0.018270625
v -0.02291 -0.213673125 -0.0080125
v 0.079866875 -0.213673125 -0.018270625
v 0.07995 -0.213673125 0.00288625
v 0.060731875 -0.213673125 -0.0077725
vt 0.343543125 0.76696625
vt 0.33775625 0.82601
vt 0.19728 0.82601
vt 0.191493125 0.76696625
vt 0.32127625 0.883001875
vt 0.29661125 0.9369587500000001
vt 0.23842375 0.9369587500000001
vt 0.21376 0.883001875
vt 0.33775625 0.82601
vt 0.32127625 0.883001875
vt 0.21376 0.883001875
vt 0.19728 0.82601
vt 0.29661125 0.9369587500000001
vt 0.267518125 0.988661875
vt 0.23842375 0.9369587500000001
vt 0.18570625 0.82601
vt 0.16922625 0.883001875
vt 0.06171 0.883001875
vt 0.04523 0.82601
vt 0.144561875 0.9369587500000001
vt 0.115468125 0.988661875
vt 0.086375 0.9369587500000001
vt 0.343543125 0.76696625
vt 0.191493125 0.76696625
vt 0.191493125 0.5511431250000001
vt 0.343543125 0.5511431250000001
vt 0.799691875 0.76696625
vt 0.647641875 0.76696625
vt 0.647641875 0.5511431250000001
vt 0.799691875 0.5511431250000001
vt 0.191493125 0.76696625
vt 0.18570625 0.82601
vt 0.04523 0.82601
vt 0.039443125 0.76696625
vt 0.16922625 0.883001875
vt 0.144561875 0.9369587500000001
vt 0.086375 0.9369587500000001
vt 0.06171 0.883001875
vt 0.945955 0.82601
vt 0.929475 0.883001875
vt 0.82195875 0.883001875
vt 0.80547875 0.82601
vt 0.90481125 0.9369587500000001
vt 0.875716875 0.988661875
vt 0.84662375 0.9369587500000001
vt 0.951741875 0.76696625
vt 0.945955 0.82601
vt 0.80547875 0.82601
vt 0.799691875 0.76696625
vt 0.929475 0.883001875
vt 0.90481125 0.9369587500000001
vt 0.84662375 0.9369587500000001
vt 0.82195875 0.883001875
vt 0.799691875 0.76696625
vt 0.793905 0.82601
vt 0.65342875 0.82601
vt 0.647641875 0.76696625
vt 0.777425 0.883001875
vt 0.75276125 0.9369587500000001
vt 0.69457375 0.936958125
vt 0.66991 0.883001875
vt 0.793905 0.82601
vt 0.777425 0.883001875
vt 0.66991 0.883001875
vt 0.65342875 0.82601
vt 0.75276125 0.9369587500000001
vt 0.723666875 0.988661875
vt 0.69457375 0.936958125
vt 0.647641875 0.76696625
vt 0.641855 0.82601
vt 0.50138 0.82601
vt 0.495593125 0.76696625
vt 0.625375 0.883001875
vt 0.60071125 0.936958125
vt 0.54252375 0.936958125
vt 0.51786 0.883001875
vt 0.641855 0.82601
vt 0.625375 0.883001875
vt 0.51786 0.883001875
vt 0.50138 0.82601
vt 0.60071125 0.936958125
vt 0.571616875 0.988661875
vt 0.54252375 0.936958125
vt 0.495593125 0.76696625
vt 0.343543125 0.76696625
vt 0.343543125 0.5511431250000001
vt 0.495593125 0.5511431250000001
vt 0.951741875 0.76696625
vt 0.799691875 0.76696625
vt 0.799691875 0.5511431250000001
vt 0.951741875 0.5511431250000001
vt 0.48980625 0.82601
vt 0.473325 0.883001875
vt 0.36581 0.883001875
vt 0.34933 0.82601
vt 0.44866125 0.936958125
vt 0.419568125 0.988661875
vt 0.39047375 0.9369587500000001
vt 0.191493125 0.76696625
vt 0.039443125 0.76696625
vt 0.039443125 0.5511431250000001
vt 0.191493125 0.5511431250000001
vt 0.647641875 0.76696625
vt 0.495593125 0.76696625
vt 0.495593125 0.5511431250000001
vt 0.647641875 0.5511431250000001
vt 0.495593125 0.76696625
vt 0.48980625 0.82601
vt 0.34933 0.82601
vt 0.343543125 0.76696625
vt 0.473325 0.883001875
vt 0.44866125 0.936958125
vt 0.39047375 0.9369587500000001
vt 0.36581 0.883001875
vt 0.65625 0.46875
vt 0.5 0.46875
vt 0.492188125 0.460938125
vt 0.664061875 0.460938125
vt 0.320311875 0.46875
vt 0.164061875 0.46875
vt 0.164061875 0.460938125
vt 0.328125 0.460938125
vt 0.984375 0.46875
vt 0.835938125 0.46875
vt 0.828125 0.460938125
vt 0.992188125 0.460938125
vt 0.820311875 0.46875
vt 0.664061875 0.46875
vt 0.664061875 0.460938125
vt 0.828125 0.460938125
vt 0.484375 0.46875
vt 0.335938125 0.46875
vt 0.328125 0.460938125
vt 0.492188125 0.460938125
vt 0.15625 0.46875
vt 0 0.46875
vt -0.007811875 0.460938125
vt 0.164061875 0.460938125
vt 0.164061875 0.460938125
vt -0.007811875 0.460938125
vt -0.007811875 0.421875
vt 0.164061875 0.421875
vt 0.828125 0.460938125
vt 0.664061875 0.460938125
vt 0.664061875 0.421875
vt 0.828125 0.421875
vt 0.328125 0.460938125
vt 0.164061875 0.460938125
vt 0.164061875 0.421875
vt 0.328125 0.421875
vt 0.992188125 0.460938125
vt 0.828125 0.460938125
vt 0.828125 0.421875
vt 0.992188125 0.421875
vt 0.664061875 0.460938125
vt 0.492188125 0.460938125
vt 0.492188125 0.421875
vt 0.664061875 0.421875
vt 0.492188125 0.460938125
vt 0.328125 0.460938125
vt 0.328125 0.421875
vt 0.492188125 0.421875
vt 0.585938125 0.140625
vt 0.5 0
vt 0.664061875 0
vt 0.335938125 0
vt 0.25 0.140625
vt 0.25 0.07031187500000002
vt 0.265625 0.046875
vt 0.414061875 0.140625
vt 0.335938125 0
vt 0.5 0
vt 0.75 0.140625
vt 0.664061875 0
vt 0.71875 0.023438124999999976
vt 0.734375 0.054688124999999976
vt 0.085938125 0.140625
vt 0 0
vt 0.164061875 0
vt 1 0.007811875000000024
vt 0.914061875 0.14843812499999998
vt 0.835938125 0.007811875000000024
vt 0.476561875 0.273438125
vt 0.476561875 0.304688125
vt 0.03125 0.304688125
vt 0.03125 0.273438125
vt 0.25 0.140625
vt 0.164061875 0
vt 0.234375 0.046875
vt 0.25 0.07031187500000002
vt 0.164061875 0
vt 0.335938125 0
vt 0.265625 0.046875
vt 0.234375 0.046875
vt 0.476561875 0.304688125
vt 0.476561875 0.34375
vt 0.03125 0.34375
vt 0.03125 0.304688125
vt 0.664061875 0
vt 0.835938125 0
vt 0.75 0.023438124999999976
vt 0.71875 0.023438124999999976
vt 0.835938125 0
vt 0.75 0.140625
vt 0.734375 0.054688124999999976
vt 0.75 0.023438124999999976
vt 0.515625 0.289061875
vt 0.546875 0.273438125
vt 0.546875 0.304688125
vt 0.03125 0.273438125
vt 0.03125 0.304688125
vt 0 0.289061875
vt 1 0.273438125
vt 1 0.304688125
vt 0.546875 0.304688125
vt 0.546875 0.273438125
vt 1 0.234375
vt 1 0.273438125
vt 0.546875 0.273438125
vt 0.546875 0.234375
vt 0.476561875 0.234375
vt 0.476561875 0.273438125
vt 0.03125 0.273438125
vt 0.03125 0.234375
vt 1 0.304688125
vt 1 0.34375
vt 0.546875 0.34375
vt 0.546875 0.304688125
vn 0.4719721939237868 0.19621118183739228 0.8595018442590693
vn 0.26637954652672163 0.8332382966390234 0.4845161279114632
vn 0.39934404936384515 0.5580295945383866 0.7274113704479817
vn 0.0933445234323145 0.9810505935282045 0.16978378274485484
vn -0.40264898929190285 0.5557750866412491 0.7273155054659026
vn -0.09422558061651906 0.9808613419044663 0.17038945951804035
vn 0.4816291420127518 0 0.8763751306170554
vn -0.4816317909935748 0 -0.8763736748124751
vn -0.474953810015967 0.1956724765936995 0.8579808624060359
vn -0.26866033119824 0.8317441408454975 0.4858223035325134
vn -0.8220803439996839 0.5693659423462644 0.002516288042374796
vn -0.18769670228592575 0.9822268274761036 0.000638229753002271
vn -0.9793203201184509 0.20228252703264166 0.0036728545279273803
vn -0.5409425379657392 0.8410575410155852 0.0018393803310852363
vn -0.4721671081395489 0.19563181101474367 -0.8595268561890473
vn -0.266553367367366 0.8326391918032847 -0.48544956341343154
vn -0.39971600104866256 0.5586407940930285 -0.7267376291900512
vn -0.09313093368447015 0.9811007864957639 -0.16961095462396455
vn 0.47538322372484443 0.1946080017441479 -0.857985149206048
vn 0.26965969318493843 0.831342130207232 -0.4859566980852375
vn 0.40251082975758196 0.5562015323966707 -0.7270659442495283
vn 0.09444809526134798 0.9808718017967033 -0.17020595095822127
vn 0.9999939955296469 0 -0.0034653866527296247
vn -0.9999940179550857 0 0.0034589093720682057
vn 0.8213926910901506 0.5703551053571665 -0.003016755988818182
vn 0.18792136002352947 0.982183871429475 -0.0006365145054737061
vn -0.48451657939194803 0 0.8747820781739452
vn 0.4845165793919479 0 -0.8747820781739452
vn 0.9793361028482791 0.2022140415251835 -0.0032060985631275265
vn 0.5409518825311185 0.8410515463110555 -0.0018322755856559144
vn 0 1 0
vn 0 1 0
vn 0 1 0
vn 0 1 0
vn 0 1 0
vn 0 1 0
vn -0.9999936701403425 0 0.0035580443010319565
vn 0.48461515176498415 0 -0.8747274745198081
vn -0.48449560407812925 0 0.8747936954670906
vn -0.48185963932578973 0 -0.8762484168252859
vn 0.9999936490936425 0 -0.0035639545986149808
vn 0.48141643118726873 0 0.8764919964169177
vn 0 -1 0
vn 0 -1 0
vn 0 -1 0
vn 0 -1 0
vn 0 -1 0
vn 0 -1 0
vn -0.9999921651354728 0 0.003958493105909845
vn 0 -1 0
vn 0 -1 0
vn 0.4850173930827911 0 -0.8745045045093671
vn 0 -1 0
vn 0 -1 0
vn 0 -1 0
vn 0 -1 0
vn -0.4850173930827912 0 0.8745045045093669
vn 0.9999922816360636 0 -0.003928952570310467
vn 0.48101156945311624 0 0.876714246520638
vn -0.4809994933135427 0 -0.8767208720180645
usemtl m_10f02fed-80ca-4d31-261b-b4682e2b5955
f 1/1/1 2/2/1 3/3/1 4/4/1
f 5/5/2 6/6/2 7/7/2 8/8/2
f 2/9/3 5/10/3 8/11/3 3/12/3
f 6/13/4 9/14/4 7/15/4
f 3/16/5 8/17/5 10/18/5 11/19/5
f 7/20/6 9/21/6 12/22/6
f 1/23/7 4/24/7 13/25/7 14/26/7
f 15/27/8 16/28/8 17/29/8 18/30/8
f 4/31/9 3/32/9 11/33/9 19/34/9
f 8/35/10 7/36/10 12/37/10 10/38/10
f 11/39/11 10/40/11 20/41/11 21/42/11
f 12/43/12 9/44/12 22/45/12
f 19/46/13 11/47/13 21/48/13 15/49/13
f 10/50/14 12/51/14 22/52/14 20/53/14
f 15/54/15 21/55/15 23/56/15 16/57/15
f 20/58/16 22/59/16 24/60/16 25/61/16
f 21/62/17 20/63/17 25/64/17 23/65/17
f 22/66/18 9/67/18 24/68/18
f 16/69/19 23/70/19 26/71/19 27/72/19
f 25/73/20 24/74/20 28/75/20 29/76/20
f 23/77/21 25/78/21 29/79/21 26/80/21
f 24/81/22 9/82/22 28/83/22
f 27/84/23 1/85/23 14/86/23 30/87/23
f 19/88/24 15/89/24 18/90/24 31/91/24
f 26/92/25 29/93/25 5/94/25 2/95/25
f 28/96/26 9/97/26 6/98/26
f 4/99/27 19/100/27 31/101/27 13/102/27
f 16/103/28 27/104/28 30/105/28 17/106/28
f 27/107/29 26/108/29 2/109/29 1/110/29
f 29/111/30 28/112/30 6/113/30 5/114/30
f 30/115/31 14/116/31 32/117/31 33/118/31
f 13/119/32 31/120/32 34/121/32 35/122/32
f 18/123/33 17/124/33 36/125/33 37/126/33
f 17/127/34 30/128/34 33/129/34 36/130/34
f 14/131/35 13/132/35 35/133/35 32/134/35
f 31/135/36 18/136/36 37/137/36 34/138/36
f 34/139/37 37/140/37 38/141/37 39/142/37
f 36/143/38 33/144/38 40/145/38 41/146/38
f 35/147/39 34/148/39 39/149/39 42/150/39
f 37/151/40 36/152/40 41/153/40 38/154/40
f 33/155/41 32/156/41 43/157/41 40/158/41
f 32/159/42 35/160/42 42/161/42 43/162/42
f 38/163/43 41/164/43 44/165/43
f 43/166/44 44/167/44 45/168/44 46/169/44
f 43/170/45 42/171/45 44/172/45
f 38/173/46 44/174/46 47/175/46 48/176/46
f 41/177/47 40/178/47 44/179/47
f 42/180/48 39/181/48 44/182/48
f 49/183/49 48/184/49 50/185/49 51/186/49
f 44/187/50 40/188/50 52/189/50 45/190/50
f 40/191/51 43/192/51 46/193/51 52/194/51
f 48/195/52 47/196/52 53/197/52 50/198/52
f 44/199/53 39/200/53 49/201/53 47/202/53
f 39/203/54 38/204/54 48/205/54 49/206/54
f 54/207/55 55/208/55 56/209/55
f 51/210/56 50/211/56 53/212/56
f 46/213/57 45/214/57 56/215/57 55/216/57
f 52/217/58 46/218/58 55/219/58 54/220/58
f 47/221/59 49/222/59 51/223/59 53/224/59
f 45/225/60 52/226/60 54/227/60 56/228/60