# Made in Blockbench 5.1.3
mtllib BreadBoard.mtl

o Breadboard
v 0.040003 0.757514 -0.0009149999999999994
v -0.040048 0.757514 -0.0009149999999999994
v -0.040048 0.754328 -0.0009149999999999994
v 0.040003 0.754328 -0.0009149999999999994
v 0.040003 0.757514 -0.02640600000000001
v 0.030053 0.753747 -0.02640600000000001
v -0.033136000000000006 0.753747 -0.02640600000000001
v -0.040048 0.757514 -0.02640600000000001
v 0.040003 0.753747 -0.021144000000000003
v -0.040048 0.753747 0.0010500000000000015
v -0.040048 0.754328 0.0010500000000000015
v -0.040048 0.753747 -0.0009149999999999994
v -0.040048 0.757514 0.02642600000000002
v -0.040048 0.753747 0.023466000000000015
v -0.040048 0.753747 0.02642600000000002
v -0.040048 0.757514 0.0010500000000000015
v 0.040003 0.757514 0.0010500000000000015
v 0.040003 0.754328 0.0010500000000000015
v 0.040003 0.757514 0.02642600000000002
v 0.040003 0.753747 -0.0009149999999999994
v 0.040003 0.753747 0.0010500000000000015
v 0.032371000000000004 0.75007 -0.02640600000000001
v 0.032371000000000004 0.753747 -0.02640600000000001
v 0.040003 0.753747 -0.02640600000000001
v 0.040003 0.75007 -0.02640600000000001
v 0.040489 0.753747 0.0010500000000000015
v 0.040489 0.753747 -0.0009149999999999994
v -0.040048 0.75007 0.021263000000000018
v -0.040048 0.753747 0.021263000000000018
v -0.040048 0.75007 0.0010500000000000015
v -0.040048 0.75007 0.023466000000000015
v -0.039562 0.753747 0.023466000000000015
v -0.039562 0.75007 0.023466000000000015
v 0.040003 0.75007 -0.021144000000000003
v 0.040003 0.75007 -0.0009149999999999994
v 0.040003 0.75007 0.023466000000000015
v 0.040003 0.753747 0.023466000000000015
v 0.040003 0.753747 0.02642600000000002
v 0.040003 0.75007 0.02642600000000002
v -0.040048 0.75007 -0.023357000000000006
v -0.040048 0.753747 -0.023357000000000006
v -0.040048 0.753747 -0.02640600000000001
v -0.040048 0.75007 -0.02640600000000001
v -0.03545399999999999 0.753747 0.02642600000000002
v -0.040048 0.75007 0.02642600000000002
v -0.03545399999999999 0.75007 0.02642600000000002
v -0.040048 0.75007 -0.0009149999999999994
v -0.040048 0.753747 -0.021144000000000003
v -0.040048 0.75007 -0.021144000000000003
v -0.039562 0.753747 -0.023357000000000006
v -0.039562 0.753747 -0.021144000000000003
v -0.039562 0.753747 0.021263000000000018
v 0.040003 0.75007 0.0010500000000000015
v 0.040003 0.753747 0.021263000000000018
v 0.040003 0.75007 0.021263000000000018
v 0.040003 0.75007 -0.023357000000000006
v 0.040489 0.75007 -0.023357000000000006
v 0.040489 0.75007 -0.021144000000000003
v 0.040003 0.753747 -0.023357000000000006
v 0.040489 0.753747 -0.021144000000000003
v 0.040489 0.753747 -0.023357000000000006
v 0.032371000000000004 0.753747 0.02642600000000002
v 0.032371000000000004 0.75007 0.02642600000000002
v -0.03545399999999999 0.75007 0.025939000000000018
v -0.03545399999999999 0.753747 0.025939000000000018
v 0.030053 0.753747 0.02642600000000002
v -0.033136000000000006 0.753747 0.02642600000000002
v -0.033136000000000006 0.75007 0.02642600000000002
v 0.030053 0.75007 0.02642600000000002
v 0.032371000000000004 0.753747 0.025939000000000018
v 0.032371000000000004 0.75007 0.025939000000000018
v -0.03545399999999999 0.753747 -0.02640600000000001
v -0.03545399999999999 0.75007 -0.02640600000000001
v -0.033136000000000006 0.753747 -0.026892000000000013
v -0.03545399999999999 0.753747 -0.026892000000000013
v -0.033136000000000006 0.75007 -0.02640600000000001
v 0.030053 0.75007 -0.02640600000000001
v 0.032371000000000004 0.753747 -0.026892000000000013
v 0.030053 0.753747 -0.026892000000000013
v 0.040489 0.75007 0.021263000000000018
v 0.040489 0.753747 0.021263000000000018
v 0.040489 0.753747 0.023466000000000015
v 0.040489 0.75007 0.023466000000000015
v -0.03545399999999999 0.75007 -0.026892000000000013
v -0.033136000000000006 0.75007 -0.026892000000000013
v 0.030053 0.75007 -0.026892000000000013
v 0.032371000000000004 0.75007 -0.026892000000000013
v -0.039562 0.75007 0.0010500000000000015
v -0.039562 0.753747 0.0010500000000000015
v -0.039562 0.753747 -0.0009149999999999994
v -0.039562 0.75007 -0.0009149999999999994
v -0.039562 0.75007 -0.021144000000000003
v -0.039562 0.75007 -0.023357000000000006
v -0.039562 0.75007 0.021263000000000018
v 0.030053 0.753747 0.025939000000000018
v 0.030053 0.75007 0.025939000000000018
v -0.033136000000000006 0.753747 0.025939000000000018
v -0.033136000000000006 0.75007 0.025939000000000018
v 0.040489 0.75007 -0.0009149999999999994
v 0.040489 0.75007 0.0010500000000000015
vt 0.000145 0.1600839999999999
vt 0.999643 0.16008499999999992
vt 0.999643 0.17757899999999993
vt 0.000145 0.177578
vt 0.000319 0.48045099999999996
vt 0.12493900000000001 0.45511499999999994
vt 0.913974 0.45511499999999994
vt 0.999815 0.48045099999999996
vt 0.6951 0.603488
vt 0.355633 0.603488
vt 0.355633 0.581882
vt 0.624723 0.578072
vt 0.355633 0.5136429999999998
vt 0.355633 0.517453
vt 0.335899 0.517453
vt 0.335899 0.5136429999999998
vt 0.6951 0.539053
vt 0.65224 0.5136429999999998
vt 0.6951 0.5136429999999998
vt 0.999643 0.21100600000000003
vt 0.000145 0.21100699999999983
vt 0.000145 0.19122499999999998
vt 0.999643 0.19122499999999998
vt 0.999643 0.16008499999999992
vt 0.000145 0.1600839999999999
vt 0.000145 0.00009899999999996023
vt 0.999643 0.00009999999999998899
vt 0.000145 0.21100699999999983
vt 0.999643 0.21100600000000003
vt 0.999643 0.37100299999999997
vt 0.000145 0.371004
vt 0.355633 0.578072
vt 0.355633 0.581882
vt 0.335899 0.581882
vt 0.335899 0.578072
vt 0.09368900000000001 0.431662
vt 0.09368900000000001 0.45511499999999994
vt 0.000318 0.45511499999999994
vt 0.000318 0.431663
vt 0.999643 0.19122499999999998
vt 0.000145 0.19122499999999998
vt 0.000145 0.177578
vt 0.999643 0.17757899999999993
vt 0.737127 0.523677
vt 0.7126010000000002 0.523677
vt 0.7126010000000002 0.52064
vt 0.737127 0.52064
vt 0.624723 0.49028000000000005
vt 0.624723 0.5136429999999998
vt 0.355633 0.5136429999999998
vt 0.355633 0.49028000000000005
vt 0.872803 0.534117
vt 0.872803 0.55707
vt 0.866729 0.55707
vt 0.866729 0.534117
vt 0.624723 0.554714
vt 0.624723 0.578072
vt 0.355633 0.578072
vt 0.355633 0.554714
vt 0.039043 0.554714
vt 0.039043 0.578072
vt 0.000255 0.578072
vt 0.000255 0.554714
vt 0.039043 0.490279
vt 0.039043 0.5136429999999998
vt 0.000255 0.5136429999999998
vt 0.000255 0.490279
vt 0.058778 0.398386
vt 0.000318 0.398386
vt 0.000318 0.375136
vt 0.058778 0.375136
vt 0.355633 0.517453
vt 0.624723 0.5136429999999998
vt 0.6951 0.539053
vt 0.355633 0.539053
vt 0.335899 0.490279
vt 0.335899 0.5136429999999998
vt 0.066529 0.5136429999999998
vt 0.066529 0.490279
vt 0.713359 0.534117
vt 0.74099 0.534117
vt 0.74099 0.537154
vt 0.713359 0.537154
vt 0.6951 0.49028000000000005
vt 0.6951 0.5136429999999998
vt 0.65224 0.5136429999999998
vt 0.65224 0.49028000000000005
vt 0.866729 0.5601069999999999
vt 0.839222 0.5601069999999999
vt 0.839222 0.55707
vt 0.866729 0.55707
vt 0.335899 0.554714
vt 0.335899 0.578072
vt 0.066529 0.578072
vt 0.066529 0.554714
vt 0.9939250000000001 0.700884
vt 0.9939250000000001 0.687149
vt 0.999964 0.687149
vt 0.999964 0.700884
vt 0.6951 0.554714
vt 0.6951 0.578072
vt 0.65224 0.578072
vt 0.65224 0.554714
vt 0.764892 0.55097
vt 0.764892 0.537154
vt 0.7709660000000002 0.537154
vt 0.7709660000000002 0.55097
vt 0.999815 0.398386
vt 0.90611 0.398386
vt 0.90611 0.375136
vt 0.999815 0.375136
vt 0.750659 0.5735839999999999
vt 0.750659 0.596536
vt 0.744585 0.596536
vt 0.744585 0.5735839999999999
vt 0.875092 0.398386
vt 0.08589 0.398386
vt 0.08589 0.375136
vt 0.875092 0.375136
vt 0.7661610000000001 0.596536
vt 0.7661610000000001 0.5735839999999999
vt 0.772235 0.5735839999999999
vt 0.772235 0.596536
vt 0.999815 0.431663
vt 0.999815 0.45511499999999994
vt 0.941301 0.45511499999999994
vt 0.941301 0.431663
vt 0.8616460000000001 0.597312
vt 0.832703 0.597312
vt 0.832703 0.594274
vt 0.8616460000000001 0.594274
vt 0.913974 0.431663
vt 0.913974 0.45511499999999994
vt 0.12493900000000001 0.45511499999999994
vt 0.12493900000000001 0.431662
vt 0.925214 0.597312
vt 0.896271 0.597312
vt 0.896271 0.594274
vt 0.925214 0.594274
vt 0.9211110000000001 0.534117
vt 0.9211110000000001 0.55707
vt 0.893604 0.55707
vt 0.893604 0.534117
vt 0.816871 0.55097
vt 0.7709660000000002 0.55097
vt 0.7709660000000002 0.537154
vt 0.816871 0.537154
vt 0.88753 0.55707
vt 0.88753 0.534117
vt 0.893604 0.534117
vt 0.893604 0.55707
vt 0.9211110000000001 0.5601069999999999
vt 0.893604 0.5601069999999999
vt 0.893604 0.55707
vt 0.9211110000000001 0.55707
vt 0.9939250000000001 0.977725
vt 0.9939250000000001 0.964052
vt 0.999964 0.964052
vt 0.999964 0.977725
vt 0.816871 0.5540069999999999
vt 0.7709660000000002 0.5540069999999999
vt 0.7709660000000002 0.55097
vt 0.816871 0.55097
vt 0.927185 0.534117
vt 0.927185 0.55707
vt 0.9211110000000001 0.55707
vt 0.9211110000000001 0.534117
vt 0.7709660000000002 0.534117
vt 0.816871 0.534117
vt 0.816871 0.537154
vt 0.7709660000000002 0.537154
vt 0.8616460000000001 0.5713219999999999
vt 0.8616460000000001 0.594274
vt 0.832703 0.594274
vt 0.832703 0.5713219999999999
vt 0.925214 0.5713219999999999
vt 0.925214 0.594274
vt 0.896271 0.594274
vt 0.8962720000000001 0.5713219999999999
vt 0.8991980000000002 0.668227
vt 0.870427 0.668227
vt 0.870427 0.665208
vt 0.8991980000000002 0.665208
vt 0.08615 0.668229
vt 0.05738000000000001 0.668229
vt 0.05738000000000001 0.6652099999999999
vt 0.08615 0.6652099999999999
vt 0.931288 0.5713219999999999
vt 0.931288 0.594274
vt 0.925214 0.594274
vt 0.925214 0.5713219999999999
vt 0.86772 0.5713219999999999
vt 0.86772 0.594274
vt 0.8616460000000001 0.594274
vt 0.8616460000000001 0.5713219999999999
vt 0.890198 0.594274
vt 0.890198 0.5713219999999999
vt 0.8962720000000001 0.5713219999999999
vt 0.896271 0.594274
vt 0.826629 0.594274
vt 0.826629 0.5713219999999999
vt 0.832703 0.5713219999999999
vt 0.832703 0.594274
vt 0.801215 0.498463
vt 0.801215 0.521415
vt 0.776689 0.521415
vt 0.776689 0.498463
vt 0.713359 0.5601069999999999
vt 0.713359 0.537154
vt 0.74099 0.537154
vt 0.74099 0.5601069999999999
vt 0.866729 0.534117
vt 0.866729 0.55707
vt 0.839222 0.55707
vt 0.839222 0.534117
vt 0.8072900000000001 0.498463
vt 0.8072900000000001 0.521415
vt 0.801215 0.521415
vt 0.801215 0.498463
vt 0.7072850000000002 0.5601069999999999
vt 0.7072850000000002 0.537154
vt 0.713359 0.537154
vt 0.713359 0.5601069999999999
vt 0.8331480000000001 0.55707
vt 0.8331480000000001 0.534117
vt 0.839222 0.534117
vt 0.839222 0.55707
vt 0.801215 0.5244519999999999
vt 0.776689 0.5244519999999999
vt 0.776689 0.521415
vt 0.801215 0.521415
vt 0.7706150000000002 0.521415
vt 0.7706150000000002 0.498463
vt 0.776689 0.498463
vt 0.776689 0.521415
vt 0.7470640000000001 0.537154
vt 0.7470640000000001 0.5601069999999999
vt 0.74099 0.5601069999999999
vt 0.74099 0.537154
vt 0.772235 0.5735839999999999
vt 0.801178 0.5735839999999999
vt 0.801177 0.596536
vt 0.772235 0.596536
vt 0.715642 0.5735839999999999
vt 0.744585 0.5735839999999999
vt 0.744585 0.596536
vt 0.715642 0.596536
vt 0.8072520000000001 0.5735839999999999
vt 0.8072520000000001 0.596536
vt 0.801177 0.596536
vt 0.801178 0.5735839999999999
vt 0.772235 0.570547
vt 0.801177 0.570547
vt 0.801178 0.5735839999999999
vt 0.772235 0.5735839999999999
vt 0.715642 0.570547
vt 0.744585 0.570547
vt 0.744585 0.5735839999999999
vt 0.715642 0.5735839999999999
vt 0.709568 0.596536
vt 0.709568 0.5735839999999999
vt 0.715642 0.5735839999999999
vt 0.715642 0.596536
vt 0.9939250000000001 0.977725
vt 0.9939250000000001 0.996093
vt 0.8991980000000002 0.996093
vt 0.8991980000000002 0.993074
vt 0.086016 0.999915
vt 0.086149 0.993072
vt 0.870427 0.993074
vt 0.870293 0.999918
vt 0.870427 0.993074
vt 0.9939250000000001 0.977725
vt 0.8991980000000002 0.993074
vt 0.9939250000000001 0.977725
vt 0.870427 0.993074
vt 0.086149 0.993072
vt 0.006399 0.977723
vt 0.9939250000000001 0.668227
vt 0.9939250000000001 0.687149
vt 0.8991980000000002 0.668227
vt 0.870427 0.668227
vt 0.8991980000000002 0.668227
vt 0.9939250000000001 0.687149
vt 0.05738000000000001 0.668229
vt 0.08615 0.668229
vt 0.006399 0.687151
vt 0.000361 0.687151
vt 0.000361 0.687151
vt 0.00036 0.668229
vt 0.05738000000000001 0.668229
vt 0.08615 0.668229
vt 0.870427 0.668227
vt 0.9939250000000001 0.687149
vt 0.006399 0.687151
vt 0.9939250000000001 0.700884
vt 0.006399 0.700885
vt 0.006399 0.687151
vt 0.9939250000000001 0.687149
vt 0.006399 0.826421
vt 0.006399 0.700885
vt 0.9939250000000001 0.700884
vt 0.9939260000000001 0.82642
vt 0.9939260000000001 0.838612
vt 0.006399 0.838612
vt 0.006399 0.826421
vt 0.9939260000000001 0.82642
vt 0.9939250000000001 0.964052
vt 0.006399 0.964051
vt 0.006399 0.838612
vt 0.9939260000000001 0.838612
vt 0.006399 0.977723
vt 0.006399 0.964051
vt 0.9939250000000001 0.964052
vt 0.9939250000000001 0.977725
vt 0.000255 0.5390539999999999
vt 0.066529 0.5136429999999998
vt 0.335899 0.517453
vt 0.335899 0.5390539999999999
vt 0.335899 0.5136429999999998
vt 0.335899 0.517453
vt 0.066529 0.5136429999999998
vt 0.355633 0.5136429999999998
vt 0.624723 0.5136429999999998
vt 0.355633 0.517453
vt 0.000361 0.964051
vt 0.000361 0.838612
vt 0.006399 0.838612
vt 0.006399 0.964051
vt 0.000361 0.700885
vt 0.006399 0.700885
vt 0.006399 0.826421
vt 0.000362 0.826421
vt 0.006399 0.977723
vt 0.086149 0.993072
vt 0.057379 0.993072
vt 0.000361 0.977723
vt 0.000361 0.977723
vt 0.057379 0.993072
vt 0.057379 0.996091
vt 0.000361 0.996091
vt 0.355633 0.578072
vt 0.624723 0.578072
vt 0.355633 0.581882
vt 0.000255 0.578072
vt 0.039043 0.578072
vt 0.000255 0.603488
vt 0.000255 0.603488
vt 0.066529 0.578072
vt 0.335899 0.581882
vt 0.335899 0.603488
vt 0.335899 0.578072
vt 0.335899 0.581882
vt 0.066529 0.578072
vt 0.000318 0.4237679999999999
vt 0.000318 0.398386
vt 0.058778 0.398386
vt 0.058778 0.398386
vt 0.08589 0.398386
vt 0.000318 0.4237679999999999
vt 0.999815 0.4237679999999999
vt 0.000318 0.4237679999999999
vt 0.08589 0.398386
vt 0.875092 0.398386
vt 0.875092 0.398386
vt 0.90611 0.398386
vt 0.999815 0.4237679999999999
vt 0.90611 0.398386
vt 0.999815 0.398386
vt 0.999815 0.4237679999999999
vt 0.737127 0.497687
vt 0.737127 0.52064
vt 0.7126010000000002 0.52064
vt 0.7126010000000002 0.497687
vt 0.743201 0.497687
vt 0.743201 0.52064
vt 0.737127 0.52064
vt 0.737127 0.497687
vt 0.9939260000000001 0.838612
vt 0.9939260000000001 0.82642
vt 0.999965 0.82642
vt 0.999965 0.838612
vt 0.706527 0.52064
vt 0.706527 0.497687
vt 0.7126010000000002 0.497687
vt 0.7126010000000002 0.52064
vt 0.941301 0.45511499999999994
vt 0.999815 0.48045099999999996
vt 0.913974 0.45511499999999994
vt 0.999815 0.45511499999999994
vt 0.999815 0.48045099999999996
vt 0.941301 0.45511499999999994
vt 0.12493900000000001 0.45511499999999994
vt 0.000319 0.48045099999999996
vt 0.09368900000000001 0.45511499999999994
vt 0.09368900000000001 0.45511499999999994
vt 0.000319 0.48045099999999996
vt 0.000318 0.45511499999999994
vt 0.65224 0.5136429999999998
vt 0.6951 0.539053
vt 0.624723 0.5136429999999998
vt 0.066529 0.5136429999999998
vt 0.000255 0.5390539999999999
vt 0.039043 0.5136429999999998
vt 0.000255 0.5136429999999998
vt 0.039043 0.5136429999999998
vt 0.000255 0.5390539999999999
vt 0.066529 0.578072
vt 0.000255 0.603488
vt 0.039043 0.578072
vt 0.6951 0.578072
vt 0.6951 0.603488
vt 0.65224 0.578072
vt 0.65224 0.578072
vt 0.6951 0.603488
vt 0.624723 0.578072
vn 0 0 1
vn 0 0 -1
vn 1 0 0
vn -1 0 0
vn -1 0 0
vn 0 0 -1
vn 0 1 0
vn 0 1 0
vn 1 0 0
vn 0 0 -1
vn 0 1 0
vn 0 1 0
vn -1 0 0
vn 0 0 -1
vn 1 0 0
vn 1 0 0
vn -1 0 0
vn 0 0 1
vn -1 0 0
vn -1 0 0
vn 0 -1 0
vn -1 0 0
vn 0 -1 0
vn 1 0 0
vn 0 -1 0
vn 1 0 0
vn 0 1 0
vn 0 0 1
vn 1 0 0
vn 0 0 1
vn -1 0 0
vn 0 0 -1
vn 0 1 0
vn 0 0 -1
vn 0 1 0
vn 1 0 0
vn 1 0 0
vn 0 0 1
vn 0 1 0
vn 0 -1 0
vn 0 0 -1
vn 0 0 -1
vn 0 0 1
vn 0 0 -1
vn 0 0 -1
vn 0 -1 0
vn 0 -1 0
vn -1 0 0
vn -1 0 0
vn 1 0 0
vn 1 0 0
vn -1 0 0
vn -1 0 0
vn -1 0 0
vn 0 0 -1
vn 0 0 -1
vn 0 0 1
vn 0 -1 0
vn 0 0 1
vn 0 0 1
vn 0 0 1
vn 0 0 1
vn 1 0 0
vn 0 -1 0
vn 0 -1 0
vn -1 0 0
vn 0 -1 0
vn 0 -1 0
vn 0 -1 0
vn 0 -1 0
vn 0 -1 0
vn 0 -1 0
vn 0 -1 0
vn 0 -1 0
vn 0 -1 0
vn 0 -1 0
vn 0 -1 0
vn 0 -1 0
vn 0 -1 0
vn 0 -1 0
vn -1 0 0
vn -1 0 0
vn -1 0 0
vn 0 -1 0
vn 0 -1 0
vn 0 -1 0
vn 0 -1 0
vn 1 0 0
vn 1 0 0
vn 1 0 0
vn 1 0 0
vn 0 0 1
vn 0 0 1
vn 0 0 1
vn 0 0 1
vn 0 0 1
vn 1 0 0
vn 0 0 -1
vn 0 -1 0
vn 0 0 1
vn 0 0 -1
vn 0 0 -1
vn 0 0 -1
vn 0 0 -1
vn -1 0 0
vn -1 0 0
vn -1 0 0
vn 1 0 0
vn 1 0 0
vn 1 0 0
usemtl m_f26ee9f3-b636-01b4-0507-be01c49854aa
f 1/1/1 2/2/1 3/3/1 4/4/1
f 5/5/2 6/6/2 7/7/2 8/8/2
f 5/9/3 1/10/3 4/11/3 9/12/3
f 10/13/4 11/14/4 3/15/4 12/16/4
f 13/17/5 14/18/5 15/19/5
f 16/20/6 17/21/6 18/22/6 11/23/6
f 2/24/7 1/25/7 5/26/7 8/27/7
f 17/28/8 16/29/8 13/30/8 19/31/8
f 20/32/9 4/33/9 18/34/9 21/35/9
f 22/36/10 23/37/10 24/38/10 25/39/10
f 11/40/11 18/41/11 4/42/11 3/43/11
f 20/44/12 21/45/12 26/46/12 27/47/12
f 28/48/13 29/49/13 10/50/13 30/51/13
f 31/52/14 14/53/14 32/54/14 33/55/14
f 34/56/15 9/57/15 20/58/15 35/59/15
f 36/60/16 37/61/16 38/62/16 39/63/16
f 40/64/17 41/65/17 42/66/17 43/67/17
f 44/68/18 15/69/18 45/70/18 46/71/18
f 11/72/19 29/73/19 13/74/19 16/75/19
f 47/76/20 12/77/20 48/78/20 49/79/20
f 48/80/21 41/81/21 50/82/21 51/83/21
f 45/84/22 15/85/22 14/86/22 31/87/22
f 14/88/23 29/89/23 52/90/23 32/91/23
f 53/92/24 21/93/24 54/94/24 55/95/24
f 34/96/25 56/97/25 57/98/25 58/99/25
f 25/100/26 24/101/26 59/102/26 56/103/26
f 59/104/27 9/105/27 60/106/27 61/107/27
f 38/108/28 62/109/28 63/110/28 39/111/28
f 44/112/29 46/113/29 64/114/29 65/115/29
f 66/116/30 67/117/30 68/118/30 69/119/30
f 63/120/31 62/121/31 70/122/31 71/123/31
f 43/124/32 42/125/32 72/126/32 73/127/32
f 72/128/33 7/129/33 74/130/33 75/131/33
f 76/132/34 7/133/34 6/134/34 77/135/34
f 6/136/35 23/137/35 78/138/35 79/139/35
f 80/140/36 81/141/36 82/142/36 83/143/36
f 57/144/37 61/145/37 60/146/37 58/147/37
f 37/148/38 36/149/38 83/150/38 82/151/38
f 54/152/39 37/153/39 82/154/39 81/155/39
f 36/156/40 55/157/40 80/158/40 83/159/40
f 56/160/41 59/161/41 61/162/41 57/163/41
f 55/164/42 54/165/42 81/166/42 80/167/42
f 9/168/43 34/169/43 58/170/43 60/171/43
f 84/172/44 75/173/44 74/174/44 85/175/44
f 86/176/45 79/177/45 78/178/45 87/179/45
f 22/180/46 77/181/46 86/182/46 87/183/46
f 76/184/47 73/185/47 84/186/47 85/187/47
f 77/188/48 6/189/48 79/190/48 86/191/48
f 73/192/49 72/193/49 75/194/49 84/195/49
f 23/196/50 22/197/50 87/198/50 78/199/50
f 7/200/51 76/201/51 85/202/51 74/203/51
f 88/204/52 89/205/52 90/206/52 91/207/52
f 92/208/53 51/209/53 50/210/53 93/211/53
f 33/212/54 32/213/54 52/214/54 94/215/54
f 30/216/55 10/217/55 89/218/55 88/219/55
f 49/220/56 48/221/56 51/222/56 92/223/56
f 29/224/57 28/225/57 94/226/57 52/227/57
f 10/228/58 12/229/58 90/230/58 89/231/58
f 12/232/59 47/233/59 91/234/59 90/235/59
f 41/236/60 40/237/60 93/238/60 50/239/60
f 70/240/61 95/241/61 96/242/61 71/243/61
f 97/244/62 65/245/62 64/246/62 98/247/62
f 66/248/63 69/249/63 96/250/63 95/251/63
f 62/252/64 66/253/64 95/254/64 70/255/64
f 67/256/65 44/257/65 65/258/65 97/259/65
f 68/260/66 67/261/66 97/262/66 98/263/66
f 36/264/67 39/265/67 63/266/67 71/267/67
f 68/268/68 98/269/68 96/270/68 69/271/68
f 96/272/69 36/273/69 71/274/69
f 36/275/70 96/276/70 98/277/70 33/278/70
f 25/279/71 56/280/71 22/281/71
f 77/282/72 22/283/72 56/284/72
f 73/285/73 76/286/73 93/287/73 40/288/73
f 40/289/74 43/290/74 73/291/74
f 76/292/75 77/293/75 56/294/75 93/295/75
f 34/296/76 92/297/76 93/298/76 56/299/76
f 91/300/77 92/301/77 34/302/77 35/303/77
f 53/304/78 88/305/78 91/306/78 35/307/78
f 55/308/79 94/309/79 88/310/79 53/311/79
f 33/312/80 94/313/80 55/314/80 36/315/80
f 8/316/81 48/317/81 3/318/81 2/319/81
f 12/320/82 3/321/82 48/322/82
f 10/323/83 29/324/83 11/325/83
f 28/326/84 30/327/84 88/328/84 94/329/84
f 49/330/85 92/331/85 91/332/85 47/333/85
f 33/334/86 98/335/86 64/336/86 31/337/86
f 31/338/87 64/339/87 46/340/87 45/341/87
f 20/342/88 9/343/88 4/344/88
f 38/345/89 37/346/89 19/347/89
f 19/348/90 54/349/90 18/350/90 17/351/90
f 21/352/91 18/353/91 54/354/91
f 13/355/92 15/356/92 44/357/92
f 44/358/93 67/359/93 13/360/93
f 19/361/94 13/362/94 67/363/94 66/364/94
f 66/365/95 62/366/95 19/367/95
f 62/368/96 38/369/96 19/370/96
f 99/371/97 27/372/97 26/373/97 100/374/97
f 35/375/98 20/376/98 27/377/98 99/378/98
f 53/379/99 35/380/99 99/381/99 100/382/99
f 21/383/100 53/384/100 100/385/100 26/386/100
f 72/387/101 8/388/101 7/389/101
f 42/390/102 8/391/102 72/392/102
f 6/393/103 5/394/103 23/395/103
f 23/396/104 5/397/104 24/398/104
f 14/399/105 13/400/105 29/401/105
f 48/402/106 8/403/106 41/404/106
f 42/405/107 41/406/107 8/407/107
f 54/408/108 19/409/108 37/410/108
f 24/411/109 5/412/109 59/413/109
f 59/414/110 5/415/110 9/416/110