# Made in Blockbench 5.1.3
mtllib Buzzer.mtl

o Buzzer_Sphere.001
v 0.08841389689689688 0.02229233402097301 0.020165568288654567
v 0.07353222622622624 0.02229233402097301 0.011581881082454589
v 0.07353222622622624 -0.05993000000000001 0.011581881082454589
v 0.08841389689689688 -0.05993000000000001 0.020165568288654567
v 0.08841389689689688 0.02229233402097301 0.0029654317113454766
v 0.08841389689689688 -0.05993000000000001 0.0029654317113454766
v -0.07583326226226225 0.02229233402097301 0.020165568288654567
v -0.09074721421421421 0.02229233402097301 0.011581881082454589
v -0.09074721421421421 -0.05993000000000001 0.011581881082454589
v -0.07583326226226225 -0.05993000000000001 0.020165568288654567
v -0.07583326226226225 0.02229233402097301 0.0029654317113454766
v -0.07583326226226225 -0.05993000000000001 0.0029654317113454766
v -0.05159002002002002 0.023184906137184113 -0.11737
v -0.05159002002002002 0.07535339745573322 -0.11737
v 0.0550996146146146 0.07535339745573322 -0.1170096161859992
v 0.0550996146146146 0.023184906137184113 -0.1170096161859992
v 0.13031500000000001 0.07535339745573322 -0.04132901524583915
v 0.13031500000000001 0.023184906137184113 -0.04132901524583915
v 0.1299599059059059 0.07535339745573322 0.06534459369838651
v 0.1299599059059059 0.023184906137184113 0.06534459369838651
v 0.05426030130130129 0.07535339745573322 0.14050100000000001
v 0.05426030130130129 0.023184906137184113 0.14050100000000001
v -0.05246161461461462 0.07535339745573322 0.14014061618599924
v -0.05246161461461462 0.023184906137184113 0.14014061618599924
v -0.12767699999999998 0.07535339745573322 0.0644600152458392
v -0.12767699999999998 0.023184906137184113 0.0644600152458392
v 0.010648290290290288 0.076704 -0.01069639105577435
v 0.023657646646646643 0.076704 0.002408474907889707
v -0.12732190590590592 0.07535339745573322 -0.04218083153347732
v -0.12732190590590592 0.023184906137184113 -0.04218083153347732
v -0.02098736536536537 0.076704 0.02072252509211029
v -0.020955084084084086 0.076704 0.002277426248253108
v 0.010486883883883883 0.076704 0.033892915385592665
v -0.00797800900900901 0.076704 0.03382739105577441
v -0.00784888388388389 0.076704 -0.01076191538559268
v 0.023593084084084077 0.076704 0.020886335916656076
v -0.020955084084084086 0.06722629345023207 0.002277426248253108
v -0.00784888388388389 0.06722629345023207 -0.01076191538559268
v -0.00797800900900901 0.06722629345023207 0.03382739105577441
v -0.02098736536536537 0.06722629345023207 0.02072252509211029
v 0.023593084084084077 0.06722629345023207 0.020886335916656076
v 0.010486883883883883 0.06722629345023207 0.033892915385592665
v 0.010648290290290288 0.06722629345023207 -0.01069639105577435
v 0.023657646646646643 0.06722629345023207 0.002408474907889707
v 0.0013189999999999981 0.06722629345023207 0.011581881082454589
v 0.0013189999999999981 0.023184906137184113 0.011581881082454589
vt 0.972656 1
vt 0.945312 1
vt 0.945312 0.664062
vt 0.972656 0.664062
vt 1 1
vt 0.972656 1
vt 0.972656 0.664062
vt 1 0.664062
vt 0.945312 1
vt 0.921875 1
vt 0.921875 0.664062
vt 0.945312 0.664062
vt 0.976562 1
vt 0.949219 1
vt 0.949219 0.664062
vt 0.976562 0.664062
vt 1 1
vt 0.976562 1
vt 0.976562 0.664062
vt 1 0.664062
vt 0.949219 1
vt 0.921875 1
vt 0.921875 0.664062
vt 0.949219 0.664062
vt 0.492188 0.578125
vt 0.492188 0.796875
vt 0.328125 0.796875
vt 0.328125 0.578125
vt 0.328125 0.578125
vt 0.328125 0.796875
vt 0.164062 0.796875
vt 0.164062 0.578125
vt 0.164062 0.578125
vt 0.164062 0.796875
vt 0 0.796875
vt 0 0.578125
vt 0.65625 0.578125
vt 0.65625 0.796875
vt 0.492188 0.796875
vt 0.492188 0.578125
vt 0.492188 0.578125
vt 0.492188 0.796875
vt 0.328125 0.796875
vt 0.328125 0.578125
vt 0.328125 0.578125
vt 0.328125 0.796875
vt 0.164062 0.796875
vt 0.164062 0.578125
vt 0.792969 0.28906199999999993
vt 0.675781 0.40625
vt 0.609375 0.23828099999999997
vt 0.628906 0.22265599999999997
vt 0.164062 0.578125
vt 0.164062 0.796875
vt 0 0.796875
vt 0 0.578125
vt 0.65625 0.578125
vt 0.65625 0.796875
vt 0.492188 0.796875
vt 0.492188 0.578125
vt 0.398438 0.28515599999999997
vt 0.398438 0.125
vt 0.5625 0.19140599999999997
vt 0.5625 0.21875
vt 0.515625 0.007812000000000041
vt 0.675781 0.007812000000000041
vt 0.609375 0.171875
vt 0.582031 0.171875
vt 0.515625 0.40625
vt 0.398438 0.28515599999999997
vt 0.5625 0.21875
vt 0.582031 0.23828099999999997
vt 0.675781 0.40625
vt 0.515625 0.40625
vt 0.582031 0.23828099999999997
vt 0.609375 0.23828099999999997
vt 0.792969 0.125
vt 0.792969 0.28906199999999993
vt 0.628906 0.22265599999999997
vt 0.628906 0.19531200000000004
vt 0.398438 0.125
vt 0.515625 0.007812000000000041
vt 0.582031 0.171875
vt 0.5625 0.19140599999999997
vt 0.675781 0.007812000000000041
vt 0.792969 0.125
vt 0.628906 0.19531200000000004
vt 0.609375 0.171875
vt 0.796875 0.796875
vt 0.765625 0.796875
vt 0.765625 0.757812
vt 0.796875 0.757812
vt 0.734375 0.796875
vt 0.710938 0.796875
vt 0.710938 0.757812
vt 0.734375 0.757812
vt 0.679688 0.796875
vt 0.65625 0.796875
vt 0.65625 0.757812
vt 0.679688 0.757812
vt 0.851562 0.796875
vt 0.820312 0.796875
vt 0.820312 0.757812
vt 0.851562 0.757812
vt 0.765625 0.796875
vt 0.734375 0.796875
vt 0.734375 0.757812
vt 0.765625 0.757812
vt 0.710938 0.796875
vt 0.679688 0.796875
vt 0.679688 0.757812
vt 0.710938 0.757812
vt 0.875 0.796875
vt 0.851562 0.796875
vt 0.851562 0.757812
vt 0.875 0.757812
vt 0.820312 0.796875
vt 0.796875 0.796875
vt 0.796875 0.757812
vt 0.820312 0.757812
vt 0.675781 0.65625
vt 0.695312 0.632812
vt 0.710938 0.667969
vt 0.722656 0.632812
vt 0.742188 0.65625
vt 0.710938 0.667969
vt 0.742188 0.65625
vt 0.742188 0.683594
vt 0.710938 0.667969
vt 0.722656 0.703125
vt 0.695312 0.703125
vt 0.710938 0.667969
vt 0.675781 0.683594
vt 0.675781 0.65625
vt 0.710938 0.667969
vt 0.695312 0.632812
vt 0.722656 0.632812
vt 0.710938 0.667969
vt 0.742188 0.683594
vt 0.722656 0.703125
vt 0.710938 0.667969
vt 0.695312 0.703125
vt 0.675781 0.683594
vt 0.710938 0.667969
vt 0.242188 0.33203099999999997
vt 0.265625 0.32421900000000003
vt 0.285156 0.40234400000000003
vt 0.003906 0.28515599999999997
vt 0.003906 0.125
vt 0.203125 0.20703099999999997
vt 0.285156 0.40234400000000003
vt 0.121094 0.40234400000000003
vt 0.242188 0.33203099999999997
vt 0.003906 0.125
vt 0.144531 0.10156200000000004
vt 0.148438 0.07421900000000003
vt 0.121094 0.007812000000000041
vt 0.398438 0.125
vt 0.398438 0.28515599999999997
vt 0.203125 0.20703099999999997
vt 0.121094 0.40234400000000003
vt 0.003906 0.28515599999999997
vt 0.203125 0.20703099999999997
vt 0.203125 0.20703099999999997
vt 0.003906 0.125
vt 0.144531 0.10156200000000004
vt 0.285156 0.007812000000000041
vt 0.398438 0.125
vt 0.203125 0.20703099999999997
vt 0.398438 0.28515599999999997
vt 0.285156 0.40234400000000003
vt 0.265625 0.32421900000000003
vt 0.203125 0.20703099999999997
vt 0.398438 0.28515599999999997
vt 0.246094 0.30859400000000003
vt 0.203125 0.20703099999999997
vt 0.246094 0.30859400000000003
vt 0.121094 0.40234400000000003
vt 0.285156 0.007812000000000041
vt 0.203125 0.20703099999999997
vt 0.167969 0.08984400000000003
vt 0.167969 0.08984400000000003
vt 0.148438 0.07421900000000003
vt 0.121094 0.007812000000000041
vt 0.285156 0.007812000000000041
vt 0.144531 0.10156200000000004
vt 0.167969 0.08984400000000003
vt 0.203125 0.20703099999999997
vt 0.246094 0.30859400000000003
vt 0.242188 0.33203099999999997
vt 0.121094 0.40234400000000003
vt 0.246094 0.30859400000000003
vt 0.398438 0.28515599999999997
vt 0.265625 0.32421900000000003
vn -0.4996398222402018 0 0.8662332526703067
vn 1 0 0
vn -0.5010687310057299 0 -0.8654074917680733
vn -0.4988276714028601 0 0.8667011908626873
vn 1 0 0
vn -0.5002558058400475 0 -0.8658776638320942
vn 0.0033778516466078266 0 -0.9999942950428535
vn 0.7092834356549556 0 -0.7049234057012879
vn 0.9999944596230087 0 0.003328772038870768
vn 0.7045560824665097 0 0.7096483119541994
vn -0.00337682992454973 0 0.9999942984935768
vn -0.7092834356549559 0 0.7049234057012876
vn 0.008996633169183246 0.9999195533684948 -0.008941330044750938
vn -0.9999944562182888 0 -0.003329794691754016
vn -0.7045594448528055 0 -0.7096449736795903
vn -0.012675458762365185 0.9999196622547936 -0.00004220690928836232
vn -0.00004283677075631974 0.9999195358273617 0.012685426118375797
vn -0.008935030421403005 0.9999195836687985 -0.008999523708815734
vn 0.00004284970607465729 0.9999195359240179 -0.012685418455825772
vn 0.012679294464702527 0.9999196136242507 0.00004220671472782181
vn -0.008994699176062068 0.9999195879531582 0.00893940794006182
vn 0.008935005333071745 0.9999195833528342 0.008999583723297898
vn 0.7052962837171529 0 0.7089126548276405
vn 0.7096881921234565 0 -0.7045159117866254
vn -0.7044040298465852 0 -0.7097992411491373
vn -0.7096881921234549 0 0.704515911786627
vn 0.9999984685297632 0 0.0017501251750794632
vn 0.003548567416286474 0 -0.9999937038148252
vn -0.9999938958646452 0 -0.003494028255397957
vn -0.0035423745317383157 0 0.9999937257716556
vn 0 1 0
vn 0 1 0
vn 0 1 0
vn 0 1 0
vn 0 1 0
vn 0 1 0
vn 0 1 0
vn 0 1 0
vn 0.021478987297619757 -0.9997692999410759 0
vn 0 -1 0
vn 0.010252286347684814 -0.9998941225887616 0.010326385480678105
vn 0.006929008696982614 0.9999035211554199 -0.01203898747694516
vn 0 -1 0
vn 0 -1 0
vn 0.015864669184383354 -0.999124858616056 0.03870179798298927
vn 0 -1 0
vn 0.021372217949013284 -0.9997715855326772 0.00007114363567988955
vn -0.01235367954587176 -0.9994700031177635 -0.030118092062014844
vn -0.012359127185817706 -0.9999107424694312 0.005075339341901368
vn 0.012123508670752613 -0.9999141348438707 -0.004974281550523361
vn -0.006884834228822707 -0.9999052905594558 -0.011916751606537792
vn 0.011568194692496519 -0.9999330861970499 0
vn -0.003676350307970617 -0.999972929544292 0.0063737451329447595
vn -0.025762115964487832 -0.9986774084159845 -0.044494351333231985
usemtl m_13967498-8122-84f8-342c-21b3ff181e86
f 1/1/1 2/2/1 3/3/1 4/4/1
f 5/5/2 1/6/2 4/7/2 6/8/2
f 2/9/3 5/10/3 6/11/3 3/12/3
f 7/13/4 8/14/4 9/15/4 10/16/4
f 11/17/5 7/18/5 10/19/5 12/20/5
f 8/21/6 11/22/6 12/23/6 9/24/6
f 13/25/7 14/26/7 15/27/7 16/28/7
f 16/29/8 15/30/8 17/31/8 18/32/8
f 18/33/9 17/34/9 19/35/9 20/36/9
f 20/37/10 19/38/10 21/39/10 22/40/10
f 22/41/11 21/42/11 23/43/11 24/44/11
f 24/45/12 23/46/12 25/47/12 26/48/12
f 17/49/13 15/50/13 27/51/13 28/52/13
f 26/53/14 25/54/14 29/55/14 30/56/14
f 30/57/15 29/58/15 14/59/15 13/60/15
f 29/61/16 25/62/16 31/63/16 32/64/16
f 23/65/17 21/66/17 33/67/17 34/68/17
f 14/69/18 29/70/18 32/71/18 35/72/18
f 15/73/19 14/74/19 35/75/19 27/76/19
f 19/77/20 17/78/20 28/79/20 36/80/20
f 25/81/21 23/82/21 34/83/21 31/84/21
f 21/85/22 19/86/22 36/87/22 33/88/22
f 35/89/23 32/90/23 37/91/23 38/92/23
f 31/93/24 34/94/24 39/95/24 40/96/24
f 33/97/25 36/98/25 41/99/25 42/100/25
f 28/101/26 27/102/26 43/103/26 44/104/26
f 32/105/27 31/106/27 40/107/27 37/108/27
f 34/109/28 33/110/28 42/111/28 39/112/28
f 36/113/29 28/114/29 44/115/29 41/116/29
f 27/117/30 35/118/30 38/119/30 43/120/30
f 41/121/31 44/122/31 45/123/31
f 43/124/32 38/125/32 45/126/32
f 38/127/33 37/128/33 45/129/33
f 40/130/34 39/131/34 45/132/34
f 42/133/35 41/134/35 45/135/35
f 44/136/36 43/137/36 45/138/36
f 37/139/37 40/140/37 45/141/37
f 39/142/38 42/143/38 45/144/38
f 1/145/39 5/146/39 20/147/39
f 24/148/40 26/149/40 46/150/40
f 20/151/41 22/152/41 1/153/41
f 26/154/42 7/155/42 8/156/42 30/157/42
f 16/158/43 18/159/43 46/160/43
f 22/161/44 24/162/44 46/163/44
f 46/164/45 26/165/45 7/166/45
f 13/167/46 16/168/46 46/169/46
f 18/170/47 20/171/47 5/172/47
f 46/173/48 18/174/48 2/175/48
f 46/176/49 2/177/49 22/178/49
f 13/179/50 46/180/50 11/181/50
f 11/182/51 8/183/51 30/184/51 13/185/51
f 7/186/52 11/187/52 46/188/52
f 2/189/53 1/190/53 22/191/53
f 2/192/54 18/193/54 5/194/54