# Made in Blockbench 5.1.3
mtllib Diode.mtl

o Diode_Sphere.012
v 0.10798125 0.03538 -0.034578125
v 0.10798125 0.072274375 -0.02559875
v 0.10798125 0.072274375 0.01765125
v 0.10798125 0.03538 0.02869
v 0.10798125 0.08481 0.06032375
v 0.10798125 0.106035 -0.0039325
v 0.10798125 0.13431125 0.02869
v 0.10798125 0.13431125 -0.034578125
v -0.106365625 0.13431125 -0.034578125
v 0.10798125 0.08481 -0.066211875
v -0.106365625 0.08481 -0.066211875
v -0.106365625 0.13431125 0.02869
v -0.106365625 0.08481 0.06032375
v -0.106365625 0.03538 0.02869
v -0.106365625 0.03538 -0.034578125
v 0.163129375 0.106035 -0.0039325
v 0.163129375 0.072274375 -0.02559875
v 0.163129375 0.072274375 0.01765125
v 0.191475 0.089510625 -0.0039325
v 0.191475 -0.11924875 -0.0039325
v 0.163129375 -0.11924875 -0.02559875
v 0.163129375 -0.11924875 0.01765125
v -0.106365625 0.072274375 -0.02559875
v -0.16053125 0.072274375 -0.02559875
v -0.16053125 0.106035 -0.0039325
v -0.106365625 0.106035 -0.0039325
v -0.106365625 0.072274375 0.01765125
v -0.16053125 0.072274375 0.01765125
v -0.188946875 0.089510625 -0.0039325
v -0.16053125 -0.11924875 -0.02559875
v -0.188946875 -0.11924875 -0.0039325
v -0.16053125 -0.11924875 0.01765125
vt 0.66015625 0.828125
vt 0.554688125 0.859375
vt 0.5 0.765625
vt 0.57421875 0.6875
vt 0.40625 0.6875
vt 0.57421875 0.6875
vt 0.5 0.765625
vt 0.40625 0.6875
vt 0.5 0.765625
vt 0.44140625 0.859375
vt 0.328125 0.828125
vt 0.40625 0.97265625
vt 0.328125 0.828125
vt 0.44140625 0.859375
vt 0.49609375 0.00390625
vt 0.5 0.648438125
vt 0.335938125 0.648438125
vt 0.33203125 0.00390625
vt 0.66015625 0.00390625
vt 0.664061875 0.648438125
vt 0.5 0.648438125
vt 0.49609375 0.00390625
vt 0.835938125 0.00390625
vt 0.835938125 0.648438125
vt 0.664061875 0.648438125
vt 0.66015625 0.00390625
vt 1 0
vt 1 0.64453125
vt 0.835938125 0.648438125
vt 0.835938125 0.00390625
vt 0.164061875 0.00390625
vt 0.16796875 0.648438125
vt 0.00390625 0.648438125
vt 0 0.00390625
vt 0.33203125 0.00390625
vt 0.335938125 0.648438125
vt 0.16796875 0.648438125
vt 0.164061875 0.00390625
vt 0.21484375 0.65234375
vt 0.273438125 0.65234375
vt 0.273438125 0.73828125
vt 0.21484375 0.73828125
vt 0.164061875 0.65234375
vt 0.21484375 0.65234375
vt 0.21484375 0.73828125
vt 0.164061875 0.73828125
vt 0.101561875 0.65234375
vt 0.164061875 0.65234375
vt 0.164061875 0.73828125
vt 0.101561875 0.73828125
vt 0.21484375 0.73828125
vt 0.273438125 0.73828125
vt 0.25 0.773438125
vt 0.101561875 0.73828125
vt 0.164061875 0.73828125
vt 0.125 0.773438125
vt 0.21484375 0.73828125
vt 0.265625 0.710938125
vt 0.265625 1.00390625
vt 0.21484375 1.00390625
vt 0.164061875 0.73828125
vt 0.21484375 0.73828125
vt 0.21484375 1.00390625
vt 0.164061875 1.00390625
vt 0.109375 0.710938125
vt 0.164061875 0.73828125
vt 0.164061875 1.00390625
vt 0.109375 1.00390625
vt 0.164061875 0.65234375
vt 0.164061875 0.73046875
vt 0.101561875 0.73046875
vt 0.101561875 0.65234375
vt 0.21484375 0.65234375
vt 0.21484375 0.73046875
vt 0.164061875 0.73046875
vt 0.164061875 0.65234375
vt 0.273438125 0.65234375
vt 0.273438125 0.73046875
vt 0.21484375 0.73046875
vt 0.21484375 0.65234375
vt 0.164061875 0.73046875
vt 0.125 0.773438125
vt 0.101561875 0.73046875
vt 0.273438125 0.73046875
vt 0.25 0.773438125
vt 0.21484375 0.73046875
vt 0.164061875 0.73046875
vt 0.164061875 1.00390625
vt 0.109375 1.00390625
vt 0.109375 0.710938125
vt 0.21484375 0.73046875
vt 0.21484375 1.00390625
vt 0.164061875 1.00390625
vt 0.164061875 0.73046875
vt 0.265625 0.710938125
vt 0.265625 1.00390625
vt 0.21484375 1.00390625
vt 0.21484375 0.73046875
vt 0.554688125 0.859375
vt 0.66015625 0.828125
vt 0.57421875 0.97265625
vt 0.44140625 0.859375
vt 0.554688125 0.859375
vt 0.57421875 0.97265625
vt 0.40625 0.97265625
vt 0.765625 0.80078125
vt 0.828125 0.898438125
vt 0.73828125 0.97265625
vt 0.66015625 0.828125
vt 0.914061875 0.97265625
vt 0.73828125 0.97265625
vt 0.828125 0.898438125
vt 1 0.828125
vt 0.914061875 0.97265625
vt 0.828125 0.898438125
vt 0.882811875 0.80078125
vt 1 0.828125
vt 0.882811875 0.80078125
vt 0.914061875 0.6875
vt 0.882811875 0.80078125
vt 0.765625 0.80078125
vt 0.73828125 0.6875
vt 0.914061875 0.6875
vt 0.73828125 0.6875
vt 0.765625 0.80078125
vt 0.66015625 0.828125
vn 1 0 0
vn 1 0 0
vn 1 0 0
vn 1 0 0
vn 0 0.5384853924078886 -0.8426348450920614
vn 0 1 0
vn 0 0.5384853924078886 0.8426348450920614
vn 0 -0.5390361680251359 0.8422826185792852
vn 0 -1 0
vn 0 -0.5390361680251359 -0.8422826185792852
vn 0 0.5401046332550548 -0.8415978761477615
vn 0 -1 0
vn 0 0.5386455476086399 0.842532476549948
vn 0.30032472091794143 0.5151717942354627 -0.8027472107891592
vn 0.2995863051935084 0.5139051287658831 0.8038342891222192
vn 0.6072764819846163 0 -0.7944905754182287
vn -1 0 0
vn 0.6058138032082713 0 0.7956064578938071
vn 0 0.5401046332550548 -0.8415978761477615
vn 0 -1 0
vn 0 0.5386455476086398 0.8425324765499479
vn -0.2996513956506491 0.5152861569369778 -0.8029254121982558
vn -0.2989143095112781 0.5140186497950094 0.8040118551565713
vn -0.6063309056043101 0 -0.7952124451422131
vn 1 0 0
vn -0.604867858903148 0 0.7963258587198594
vn 1 0 0
vn 1 0 0
vn -1 0 0
vn -1 0 0
vn -1 0 0
vn -1 0 0
vn -1 0 0
vn -1 0 0
usemtl m_c2896a62-7b79-7bf8-4e25-e1e3628a0ec9
f 1/1/1 2/2/1 3/3/1 4/4/1
f 5/5/2 4/6/2 3/7/2
f 5/8/3 3/9/3 6/10/3 7/11/3
f 8/12/4 7/13/4 6/14/4
f 9/15/5 8/16/5 10/17/5 11/18/5
f 12/19/6 7/20/6 8/21/6 9/22/6
f 13/23/7 5/24/7 7/25/7 12/26/7
f 14/27/8 4/28/8 5/29/8 13/30/8
f 15/31/9 1/32/9 4/33/9 14/34/9
f 11/35/10 10/36/10 1/37/10 15/38/10
f 2/39/11 6/40/11 16/41/11 17/42/11
f 3/43/12 2/44/12 17/45/12 18/46/12
f 6/47/13 3/48/13 18/49/13 16/50/13
f 17/51/14 16/52/14 19/53/14
f 16/54/15 18/55/15 19/56/15
f 17/57/16 19/58/16 20/59/16 21/60/16
f 18/61/17 17/62/17 21/63/17 22/64/17
f 19/65/18 18/66/18 22/67/18 20/68/18
f 23/69/19 24/70/19 25/71/19 26/72/19
f 27/73/20 28/74/20 24/75/20 23/76/20
f 26/77/21 25/78/21 28/79/21 27/80/21
f 24/81/22 29/82/22 25/83/22
f 25/84/23 29/85/23 28/86/23
f 24/87/24 30/88/24 31/89/24 29/90/24
f 28/91/25 32/92/25 30/93/25 24/94/25
f 29/95/26 31/96/26 32/97/26 28/98/26
f 2/99/27 1/100/27 10/101/27
f 6/102/28 2/103/28 10/104/28 8/105/28
f 27/106/29 23/107/29 15/108/29 14/109/29
f 11/110/30 15/111/30 23/112/30
f 9/113/31 11/114/31 23/115/31 26/116/31
f 9/117/32 26/118/32 12/119/32
f 26/120/33 27/121/33 13/122/33 12/123/33
f 13/124/34 27/125/34 14/126/34