# Made in Blockbench 5.1.3
mtllib Button.mtl

o Button_Cube.001
v 0.11228600000000001 -0.03280278481012661 0.009579000000000034
v 0.11228600000000001 -0.03280278481012661 -0.117625
v 0.11228600000000001 0.07848517721518983 -0.117625
v 0.11228600000000001 0.07848517721518983 0.136783
v 0.11228600000000001 -0.03280278481012661 0.136783
v -0.014951999999999995 -0.03280278481012661 -0.117625
v -0.14219000000000004 -0.03280278481012661 -0.117625
v -0.14219000000000004 0.07848517721518983 -0.117625
v 0.071180962466488 0.07848517721518983 -0.04017138475499089
v -0.014951999999999995 0.07848517721518983 -0.08986405444646099
v -0.014951999999999995 0.13564000000000004 -0.08986405444646099
v 0.071180962466488 0.13564000000000004 -0.04017138475499089
v -0.014951999999999995 0.07848517721518983 0.10896433938294008
v 0.071180962466488 0.07848517721518983 0.05927166969147002
v 0.071180962466488 0.13564000000000004 0.05927166969147002
v -0.014951999999999995 0.13564000000000004 0.10896433938294008
v -0.1010849624664879 0.07848517721518983 0.05927166969147002
v -0.1010849624664879 0.13564000000000004 0.05927166969147002
v -0.1010849624664879 0.07848517721518983 -0.04017138475499089
v -0.1010849624664879 0.13564000000000004 -0.04017138475499089
v -0.014951999999999995 0.13564000000000004 0.009579000000000034
v -0.14219000000000004 0.07848517721518983 0.136783
v -0.14219000000000004 -0.03280278481012661 0.009579000000000034
v -0.14219000000000004 -0.03280278481012661 0.136783
v -0.014951999999999995 -0.03280278481012661 0.136783
v -0.0734541903485254 -0.03280278481012661 0.083916001814882
v -0.09250009294012519 -0.03280278481012661 0.06487003085299452
v 0.0658935924932976 -0.03280278481012661 0.06487003085299452
v 0.04679083646112604 -0.03280278481012661 0.083916001814882
v 0.04679083646112604 -0.03280278481012661 -0.07254953539019963
v 0.0658935924932976 -0.03280278481012661 -0.0534458493647913
v -0.09250009294012519 -0.03280278481012661 -0.05304184392014519
v -0.0734541903485254 -0.03280278481012661 -0.07278039564428315
v -0.09250009294012519 -0.03280278481012661 -0.07278039564428315
v -0.09250009294012519 -0.11830999999999998 -0.07278039564428315
v -0.09250009294012519 -0.11830999999999998 -0.05304184392014519
v -0.0734541903485254 -0.11830999999999998 0.083916001814882
v -0.09250009294012519 -0.11830999999999998 0.06487003085299452
v 0.0658935924932976 -0.03280278481012661 -0.07254953539019963
v 0.04679083646112604 -0.11830999999999998 0.083916001814882
v 0.0658935924932976 -0.11830999999999998 0.083916001814882
v 0.0658935924932976 -0.03280278481012661 0.083916001814882
v 0.0658935924932976 -0.11830999999999998 -0.0534458493647913
v 0.0658935924932976 -0.11830999999999998 -0.07254953539019963
v -0.09250009294012519 -0.03280278481012661 0.083916001814882
v 0.04679083646112604 -0.11830999999999998 -0.07254953539019963
v 0.0658935924932976 -0.11830999999999998 0.06487003085299452
v -0.09250009294012519 -0.11830999999999998 0.083916001814882
v -0.0734541903485254 -0.11830999999999998 -0.07278039564428315
vt 0.59375 0.375
vt 0.59375 0.5
vt 0.5 0.5
vt 0.5 0.25
vt 0.59375 0.375
vt 0.5 0.5
vt 0.5 0.25
vt 0.59375 0.25
vt 0.59375 0.375
vt 0.375 0.59375
vt 0.5 0.5
vt 0.5 0.59375
vt 0.375 0.59375
vt 0.25 0.59375
vt 0.25 0.5
vt 0.294086 0.786108
vt 0.391908 0.786108
vt 0.391908 0.914558
vt 0.294086 0.914558
vt 0.098443 0.786108
vt 0.196265 0.786108
vt 0.196265 0.914558
vt 0.098443 0.914558
vt 0.000621 0.786108
vt 0.098443 0.786108
vt 0.098443 0.914558
vt 0.000621 0.914558
vt 0.391908 0.786108
vt 0.48973 0.786108
vt 0.48973 0.914558
vt 0.391908 0.914558
vt 0.196265 0.786108
vt 0.294086 0.786108
vt 0.294086 0.914558
vt 0.196265 0.914558
vt 0.48973 0.786108
vt 0.587551 0.786108
vt 0.587551 0.914558
vt 0.48973 0.914558
vt 0.196265 0.914558
vt 0.294086 0.914558
vt 0.245175 0.999274
vt 0.48973 0.914558
vt 0.587551 0.914558
vt 0.538641 0.999274
vt 0.294086 0.914558
vt 0.391908 0.914558
vt 0.342997 0.999274
vt 0.098443 0.914558
vt 0.196265 0.914558
vt 0.147354 0.999274
vt 0.000621 0.914558
vt 0.098443 0.914558
vt 0.049532 0.999274
vt 0.391908 0.914558
vt 0.48973 0.914558
vt 0.440819 0.999274
vt 0.291373 0.424111
vt 0.376089 0.47302200000000005
vt 0.25 0.5
vt 0.25 0.25
vt 0.5 0.25
vt 0.376089 0.27737900000000004
vt 0.460805 0.32628999999999997
vt 0.376089 0.27737900000000004
vt 0.5 0.25
vt 0.376089 0.27737900000000004
vt 0.291373 0.32628999999999997
vt 0.25 0.25
vt 0.25 0.5
vt 0.25 0.25
vt 0.291373 0.32628999999999997
vt 0.291373 0.424111
vt 0.5 0.25
vt 0.5 0.5
vt 0.460805 0.424111
vt 0.460805 0.32628999999999997
vt 0.376089 0.47302200000000005
vt 0.460805 0.424111
vt 0.5 0.5
vt 0.5 0.5
vt 0.25 0.5
vt 0.376089 0.47302200000000005
vt 0.5 0.5
vt 0.375 0.59375
vt 0.25 0.5
vt 0.15625 0.375
vt 0.25 0.5
vt 0.15625 0.5
vt 0.25 0.25
vt 0.15625 0.375
vt 0.15625 0.25
vt 0.25 0.5
vt 0.15625 0.375
vt 0.25 0.25
vt 0.25 0.25
vt 0.25 0.15625
vt 0.375 0.15625
vt 0.25 0.25
vt 0.375 0.15625
vt 0.5 0.25
vt 0.5 0.25
vt 0.375 0.15625
vt 0.5 0.15625
vt 0.72501 0.850488
vt 0.849929 0.975415
vt 0.791754 0.922782
vt 0.771927 0.903014
vt 0.974857 0.850493
vt 0.929321 0.904789
vt 0.91058 0.923529
vt 0.849929 0.975415
vt 0.849934 0.725568
vt 0.910581 0.769858
vt 0.92932 0.788597
vt 0.974857 0.850493
vt 0.72501 0.850488
vt 0.77377 0.789021
vt 0.792509 0.769642
vt 0.849934 0.725568
vt 0.849929 0.975415
vt 0.72501 0.850488
vt 0.849934 0.725568
vt 0.974857 0.850493
vt 0.920914 0.022692000000000045
vt 0.920914 0.215101
vt 0.9015 0.215101
vt 0.9015 0.022692000000000045
vt 0.849934 0.725568
vt 0.792509 0.769642
vt 0.77377 0.769642
vt 0.725013 0.725564
vt 0.725013 0.725564
vt 0.77377 0.769642
vt 0.77377 0.789021
vt 0.72501 0.850488
vt 0.874496 0.022692000000000045
vt 0.901044 0.022692000000000045
vt 0.901044 0.215101
vt 0.874496 0.215101
vt 0.97486 0.725569
vt 0.92932 0.769858
vt 0.910581 0.769858
vt 0.849934 0.725568
vt 0.974857 0.850493
vt 0.92932 0.788597
vt 0.92932 0.769858
vt 0.97486 0.725569
vt 0.901044 0.215101
vt 0.901044 0.022692000000000045
vt 0.919816 0.022692000000000045
vt 0.919816 0.215101
vt 0.849929 0.975415
vt 0.91058 0.923529
vt 0.92932 0.92353
vt 0.97486 0.975418
vt 0.97486 0.975418
vt 0.92932 0.92353
vt 0.929321 0.904789
vt 0.974857 0.850493
vt 0.902141 0.215101
vt 0.902142 0.022692000000000045
vt 0.920914 0.022692000000000045
vt 0.920913 0.215101
vt 0.849929 0.975415
vt 0.721897 0.975897
vt 0.771958 0.922738
vt 0.791754 0.922782
vt 0.721897 0.975897
vt 0.72501 0.850488
vt 0.771927 0.903014
vt 0.771958 0.922738
vt 0.856821 0.215101
vt 0.856821 0.022692000000000045
vt 0.875593 0.022692000000000045
vt 0.875593 0.215101
vt 0.874496 0.215101
vt 0.874496 0.022692000000000045
vt 0.901044 0.022692000000000045
vt 0.901044 0.215101
vt 0.855723 0.022692000000000045
vt 0.874496 0.022692000000000045
vt 0.874496 0.215101
vt 0.855723 0.215101
vt 0.874496 0.022691000000000017
vt 0.874496 0.215101
vt 0.855724 0.215101
vt 0.855724 0.022691000000000017
vt 0.875593 0.215101
vt 0.875593 0.022692000000000045
vt 0.902142 0.022692000000000045
vt 0.902141 0.215101
vt 0.855723 0.215101
vt 0.855723 0.022692000000000045
vt 0.874496 0.022692000000000045
vt 0.874496 0.215101
vt 0.901044 0.022692000000000045
vt 0.919816 0.022692000000000045
vt 0.919816 0.215101
vt 0.901044 0.215101
vt 0.9015 0.022692000000000045
vt 0.9015 0.215101
vt 0.874496 0.215101
vt 0.874496 0.022691000000000017
vn 1 0 0
vn 1 0 0
vn 1 0 0
vn 0 0 -1
vn 0 0 -1
vn 0.49972679913728885 0 -0.8661830789296221
vn 0.4997267991372885 0 0.8661830789296224
vn -0.4997267991372888 0 0.866183078929622
vn -0.49972679913728923 0 -0.8661830789296218
vn 1 0 0
vn -1 0 0
vn 0 1 0
vn 0 1 0
vn 0 1 0
vn 0 1 0
vn 0 1 0
vn 0 1 0
vn 0 1 0
vn 0 1 0
vn 0 1 0
vn 0 1 0
vn 0 1 0
vn 0 1 0
vn 0 1 0
vn 0 1 0
vn 0 0 -1
vn -1 0 0
vn -1 0 0
vn -1 0 0
vn 0 0 1
vn 0 0 1
vn 0 0 1
vn 0 -1 0
vn 0 -1 0
vn 0 -1 0
vn 0 -1 0
vn 0 -1 0
vn -1 0 0
vn 0 -1 0
vn 0 -1 0
vn 0.7071080503562198 0 -0.7071055120145973
vn 0 -1 0
vn 0 -1 0
vn 0 0 1
vn 0 -1 0
vn 0 -1 0
vn 1 0 0
vn 0 -1 0
vn 0 -1 0
vn 0 0 -1
vn -0.7060534577544082 0 -0.7081585378946188
vn -1 0 0
vn 0 0 -1
vn -0.707123992852568 0 0.7070895691015682
vn 1 0 0
vn 0 0 1
vn 0.7196202074850081 0 0.6943678830268821
usemtl m_0b9e5cec-dce7-ef8d-8274-887b823ead33
f 1/1/1 2/2/1 3/3/1
f 4/4/2 1/5/2 3/6/2
f 4/7/3 5/8/3 1/9/3
f 6/10/4 3/11/4 2/12/4
f 6/13/5 7/14/5 8/15/5
f 9/16/6 10/17/6 11/18/6 12/19/6
f 13/20/7 14/21/7 15/22/7 16/23/7
f 17/24/8 13/25/8 16/26/8 18/27/8
f 10/28/9 19/29/9 20/30/9 11/31/9
f 14/32/10 9/33/10 12/34/10 15/35/10
f 19/36/11 17/37/11 18/38/11 20/39/11
f 15/40/12 12/41/12 21/42/12
f 20/43/13 18/44/13 21/45/13
f 12/46/14 11/47/14 21/48/14
f 16/49/15 15/50/15 21/51/15
f 18/52/16 16/53/16 21/54/16
f 11/55/17 20/56/17 21/57/17
f 19/58/18 10/59/18 8/60/18
f 22/61/19 4/62/19 13/63/19
f 14/64/20 13/65/20 4/66/20
f 13/67/21 17/68/21 22/69/21
f 8/70/22 22/71/22 17/72/22 19/73/22
f 4/74/23 3/75/23 9/76/23 14/77/23
f 10/78/24 9/79/24 3/80/24
f 3/81/25 8/82/25 10/83/25
f 3/84/26 6/85/26 8/86/26
f 23/87/27 8/88/27 7/89/27
f 22/90/28 23/91/28 24/92/28
f 8/93/29 23/94/29 22/95/29
f 22/96/30 24/97/30 25/98/30
f 22/99/31 25/100/31 4/101/31
f 4/102/32 25/103/32 5/104/32
f 23/105/33 25/106/33 26/107/33 27/108/33
f 1/109/34 28/110/34 29/111/34 25/112/34
f 6/113/35 30/114/35 31/115/35 1/116/35
f 23/117/36 32/118/36 33/119/36 6/120/36
f 25/121/37 23/122/37 6/123/37 1/124/37
f 34/125/38 35/126/38 36/127/38 32/128/38
f 6/129/39 33/130/39 34/131/39 7/132/39
f 7/133/40 34/134/40 32/135/40 23/136/40
f 27/137/41 26/138/41 37/139/41 38/140/41
f 2/141/42 39/142/42 30/143/42 6/144/42
f 1/145/43 31/146/43 39/147/43 2/148/43
f 29/149/44 40/150/44 41/151/44 42/152/44
f 25/153/45 29/154/45 42/155/45 5/156/45
f 5/157/46 42/158/46 28/159/46 1/160/46
f 31/161/47 43/162/47 44/163/47 39/164/47
f 25/165/48 24/166/48 45/167/48 26/168/48
f 24/169/49 23/170/49 27/171/49 45/172/49
f 39/173/50 44/174/50 46/175/50 30/176/50
f 28/177/51 47/178/51 40/179/51 29/180/51
f 45/181/52 27/182/52 38/183/52 48/184/52
f 33/185/53 49/186/53 35/187/53 34/188/53
f 30/189/54 46/190/54 43/191/54 31/192/54
f 42/193/55 41/194/55 47/195/55 28/196/55
f 26/197/56 45/198/56 48/199/56 37/200/56
f 32/201/57 36/202/57 49/203/57 33/204/57