# Made in Blockbench 5.1.3
mtllib IC.mtl

o IC_Sphere.013
v -0.12097312499999999 0.02314 0.052784973388537056
v -0.11299227632387124 0.0047956250000000065 0.04852339604776177
v 0.06802462578131588 0.0047956250000000065 0.04852339604776177
v 0.07600500000000002 0.02314 0.052784973388537056
v 0.06802462578131588 0.041503125 0.04852339604776177
v -0.11299227632387124 0.041503125 0.04852339604776177
v 0.05543015291360063 0.027598124999999994 0.0557855537602417
v 0.05543015291360063 0.020142499999999997 0.06311287708790181
v 0.06095853105843461 0.016880000000000003 0.0557855537602417
v 0.05543015291360063 0.012914999999999987 0.065656875
v 0.06095853105843461 0.012914999999999987 0.0557855537602417
v 0.049881373098647534 0.016880000000000003 0.0557855537602417
v 0.049881373098647534 0.012914999999999987 0.0557855537602417
v 0.06095853105843461 0.016880000000000003 0.04808839440876693
v 0.05543015291360063 0.027598124999999994 0.04808839440876693
v 0.049881373098647534 0.016880000000000003 0.04808839440876693
v 0.049881373098647534 -0.024474999999999997 0.0557855537602417
v 0.05543015291360063 -0.024474999999999997 0.065656875
v 0.06095853105843461 -0.024474999999999997 0.0557855537602417
v 0.0035358954497007253 0.027598124999999994 0.0557855537602417
v 0.0035358954497007253 0.020142499999999997 0.06311287708790181
v 0.009064273594534704 0.016880000000000003 0.0557855537602417
v 0.0035358954497007253 0.012914999999999987 0.065656875
v 0.009064273594534704 0.012914999999999987 0.0557855537602417
v -0.002012884365252366 0.016880000000000003 0.0557855537602417
v -0.002012884365252366 0.012914999999999987 0.0557855537602417
v 0.009064273594534704 0.016880000000000003 0.04808839440876693
v 0.0035358954497007253 0.027598124999999994 0.04808839440876693
v -0.002012884365252366 0.016880000000000003 0.04808839440876693
v -0.002012884365252366 -0.024474999999999997 0.0557855537602417
v 0.0035358954497007253 -0.024474999999999997 0.065656875
v 0.009064273594534704 -0.024474999999999997 0.0557855537602417
v -0.048504020449700716 0.027598124999999994 0.0557855537602417
v -0.048504020449700716 0.020142499999999997 0.06311287708790181
v -0.042954766177303 0.016880000000000003 0.0557855537602417
v -0.048504020449700716 0.012914999999999987 0.065656875
v -0.042954766177303 0.012914999999999987 0.0557855537602417
v -0.05403192413709007 0.016880000000000003 0.0557855537602417
v -0.05403192413709007 0.012914999999999987 0.0557855537602417
v -0.042954766177303 0.016880000000000003 0.04808839440876693
v -0.048504020449700716 0.027598124999999994 0.04808839440876693
v -0.05403192413709007 0.016880000000000003 0.04808839440876693
v -0.05403192413709007 -0.024474999999999997 0.0557855537602417
v -0.048504020449700716 -0.024474999999999997 0.065656875
v 0.049881373098647534 0.012914999999999987 -0.0554758479396301
v 0.05543015291360063 0.012914999999999987 -0.06536875
v 0.05543015291360063 -0.024474999999999997 -0.06536875
v 0.049881373098647534 -0.024474999999999997 -0.0554758479396301
v 0.06095853105843461 0.012914999999999987 -0.0554758479396301
v 0.06095853105843461 -0.024474999999999997 -0.0554758479396301
v 0.06095853105843461 0.016880000000000003 -0.0554758479396301
v 0.049881373098647534 0.016880000000000003 -0.0554758479396301
v 0.06095853105843461 0.016880000000000003 -0.04780026940876693
v 0.049881373098647534 0.016880000000000003 -0.04780026940876693
v 0.05543015291360063 0.027598124999999994 -0.0554758479396301
v 0.05543015291360063 0.027598124999999994 -0.04780026940876693
v 0.05543015291360063 0.020142499999999997 -0.06282475208790181
v -0.002012884365252366 0.012914999999999987 -0.0554758479396301
v 0.0035358954497007253 0.012914999999999987 -0.06536875
v 0.0035358954497007253 -0.024474999999999997 -0.06536875
v -0.002012884365252366 -0.024474999999999997 -0.0554758479396301
v 0.009064273594534704 0.012914999999999987 -0.0554758479396301
v 0.009064273594534704 -0.024474999999999997 -0.0554758479396301
v 0.009064273594534704 0.016880000000000003 -0.0554758479396301
v -0.002012884365252366 0.016880000000000003 -0.0554758479396301
v 0.009064273594534704 0.016880000000000003 -0.04780026940876693
v -0.002012884365252366 0.016880000000000003 -0.04780026940876693
v 0.0035358954497007253 0.027598124999999994 -0.0554758479396301
v 0.0035358954497007253 0.027598124999999994 -0.04780026940876693
v 0.0035358954497007253 0.020142499999999997 -0.06282475208790181
v -0.05403192413709007 0.012914999999999987 -0.0554758479396301
v -0.048504020449700716 0.012914999999999987 -0.06536875
v -0.048504020449700716 -0.024474999999999997 -0.06536875
v -0.05403192413709007 -0.024474999999999997 -0.0554758479396301
v -0.042954766177303 0.012914999999999987 -0.0554758479396301
v -0.042954766177303 -0.024474999999999997 -0.0554758479396301
v -0.042954766177303 0.016880000000000003 -0.0554758479396301
v -0.05403192413709007 0.016880000000000003 -0.0554758479396301
v -0.042954766177303 0.016880000000000003 -0.04780026940876693
v -0.05403192413709007 0.016880000000000003 -0.04780026940876693
v -0.048504020449700716 0.027598124999999994 -0.0554758479396301
v -0.048504020449700716 0.027598124999999994 -0.04780026940876693
v -0.048504020449700716 0.020142499999999997 -0.06282475208790181
v -0.10592618160098999 0.012914999999999987 -0.0554758479396301
v -0.10039827791360062 0.012914999999999987 -0.06536875
v -0.10039827791360062 -0.024474999999999997 -0.06536875
v -0.10592618160098999 -0.024474999999999997 -0.0554758479396301
v -0.0948490236412029 0.012914999999999987 -0.0554758479396301
v -0.0948490236412029 -0.024474999999999997 -0.0554758479396301
v -0.0948490236412029 0.016880000000000003 -0.0554758479396301
v -0.10592618160098999 0.016880000000000003 -0.0554758479396301
v -0.0948490236412029 0.016880000000000003 -0.04780026940876693
v -0.10592618160098999 0.016880000000000003 -0.04780026940876693
v -0.10039827791360062 0.027598124999999994 -0.0554758479396301
v -0.10039827791360062 0.027598124999999994 -0.04780026940876693
v -0.10039827791360062 0.020142499999999997 -0.06282475208790181
v 0.07600500000000002 0.02314 -0.052061846749542215
v 0.06802462578131588 0.0047956250000000065 -0.04780026940876693
v -0.12097312499999999 0.02314 -0.052061846749542215
v -0.11299227632387124 0.0047956250000000065 -0.04780026940876693
v 0.06802462578131588 0.041503125 -0.04780026940876693
v -0.11299227632387124 0.041503125 -0.04780026940876693
v -0.042954766177303 -0.024474999999999997 0.0557855537602417
v -0.10039827791360062 0.027598124999999994 0.0557855537602417
v -0.10039827791360062 0.020142499999999997 0.06311287708790181
v -0.0948490236412029 0.016880000000000003 0.0557855537602417
v -0.10039827791360062 0.012914999999999987 0.065656875
v -0.0948490236412029 0.012914999999999987 0.0557855537602417
v -0.10592618160098999 0.016880000000000003 0.0557855537602417
v -0.10592618160098999 0.012914999999999987 0.0557855537602417
v -0.0948490236412029 0.016880000000000003 0.04808839440876693
v -0.10039827791360062 0.027598124999999994 0.04808839440876693
v -0.10592618160098999 0.016880000000000003 0.04808839440876693
v -0.10592618160098999 -0.024474999999999997 0.0557855537602417
v -0.10039827791360062 -0.024474999999999997 0.065656875
v -0.0948490236412029 -0.024474999999999997 0.0557855537602417
vt 0.79296875 0
vt 0.76171875 0.07421875
vt 0.085938125 0.07421875
vt 0.054688125 0
vt 0.79296875 0.5
vt 0.757811875 0.578125
vt 0.09375 0.578125
vt 0.054688125 0.5
vt 0.86328125 0.585938125
vt 0.88671875 0.55859375
vt 0.90625 0.585938125
vt 0.87109375 0.570311875
vt 0.90625 0.570311875
vt 0.90625 0.585938125
vt 0.875 0.59765625
vt 0.98046875 0.570311875
vt 0.976561875 0.59765625
vt 0.945311875 0.585938125
vt 0.945311875 0.570311875
vt 0.945311875 0.585938125
vt 0.96484375 0.55859375
vt 0.98828125 0.585938125
vt 0.86328125 0.585938125
vt 0.90625 0.585938125
vt 0.90625 0.609375
vt 0.86328125 0.609375
vt 0.945311875 0.585938125
vt 0.98828125 0.585938125
vt 0.98828125 0.609375
vt 0.945311875 0.609375
vt 0.90625 0.585938125
vt 0.945311875 0.585938125
vt 0.945311875 0.609375
vt 0.90625 0.609375
vt 0.90625 0.570311875
vt 0.945311875 0.570311875
vt 0.945311875 0.585938125
vt 0.90625 0.585938125
vt 0.98046875 0.570311875
vt 0.945311875 0.570311875
vt 0.945311875 0.4375
vt 0.98046875 0.4375
vt 0.945311875 0.570311875
vt 0.90625 0.570311875
vt 0.90625 0.4375
vt 0.945311875 0.4375
vt 0.90625 0.570311875
vt 0.87109375 0.570311875
vt 0.87109375 0.4375
vt 0.90625 0.4375
vt 0.875 0.96875
vt 0.898438125 0.94140625
vt 0.91796875 0.96484375
vt 0.87890625 0.953125
vt 0.91796875 0.94921875
vt 0.91796875 0.96484375
vt 0.88671875 0.98046875
vt 0.992188125 0.94921875
vt 0.984375 0.98046875
vt 0.953125 0.96484375
vt 0.953125 0.94921875
vt 0.953125 0.96484375
vt 0.97265625 0.9375
vt 0.99609375 0.96484375
vt 0.875 0.96875
vt 0.91796875 0.96484375
vt 0.91796875 0.992188125
vt 0.875 0.992188125
vt 0.953125 0.96484375
vt 0.99609375 0.96484375
vt 0.99609375 0.992188125
vt 0.953125 0.992188125
vt 0.91796875 0.96484375
vt 0.953125 0.96484375
vt 0.953125 0.992188125
vt 0.91796875 0.992188125
vt 0.91796875 0.94921875
vt 0.953125 0.94921875
vt 0.953125 0.96484375
vt 0.91796875 0.96484375
vt 0.992188125 0.94921875
vt 0.953125 0.94921875
vt 0.953125 0.81640625
vt 0.992188125 0.81640625
vt 0.953125 0.94921875
vt 0.91796875 0.94921875
vt 0.91796875 0.81640625
vt 0.953125 0.81640625
vt 0.91796875 0.94921875
vt 0.87890625 0.953125
vt 0.87890625 0.81640625
vt 0.91796875 0.81640625
vt 0.867188125 0.40625
vt 0.89453125 0.37890625
vt 0.91015625 0.40625
vt 0.875 0.390625
vt 0.91015625 0.390625
vt 0.91015625 0.40625
vt 0.882811875 0.41796875
vt 0.984375 0.390625
vt 0.98046875 0.41796875
vt 0.94921875 0.40625
vt 0.94921875 0.390625
vt 0.94921875 0.40625
vt 0.96875 0.37890625
vt 0.992188125 0.40625
vt 0.867188125 0.40625
vt 0.91015625 0.40625
vt 0.91015625 0.429688125
vt 0.867188125 0.429688125
vt 0.94921875 0.40625
vt 0.992188125 0.40625
vt 0.992188125 0.429688125
vt 0.94921875 0.429688125
vt 0.91015625 0.40625
vt 0.94921875 0.40625
vt 0.94921875 0.429688125
vt 0.91015625 0.429688125
vt 0.91015625 0.390625
vt 0.94921875 0.390625
vt 0.94921875 0.40625
vt 0.91015625 0.40625
vt 0.984375 0.390625
vt 0.94921875 0.390625
vt 0.94921875 0.257811875
vt 0.984375 0.257811875
vt 0.91015625 0.570311875
vt 0.87109375 0.570311875
vt 0.87109375 0.4375
vt 0.91015625 0.4375
vt 0.945311875 0.570311875
vt 0.91015625 0.570311875
vt 0.91015625 0.4375
vt 0.945311875 0.4375
vt 0.984375 0.570311875
vt 0.945311875 0.570311875
vt 0.945311875 0.4375
vt 0.984375 0.4375
vt 0.91015625 0.570311875
vt 0.945311875 0.570311875
vt 0.945311875 0.585938125
vt 0.91015625 0.585938125
vt 0.91015625 0.585938125
vt 0.945311875 0.585938125
vt 0.945311875 0.609375
vt 0.91015625 0.609375
vt 0.945311875 0.585938125
vt 0.98828125 0.585938125
vt 0.98828125 0.609375
vt 0.945311875 0.609375
vt 0.867188125 0.585938125
vt 0.91015625 0.585938125
vt 0.91015625 0.609375
vt 0.867188125 0.609375
vt 0.945311875 0.585938125
vt 0.96484375 0.55859375
vt 0.98828125 0.585938125
vt 0.984375 0.570311875
vt 0.976561875 0.59765625
vt 0.945311875 0.585938125
vt 0.945311875 0.570311875
vt 0.87109375 0.570311875
vt 0.91015625 0.570311875
vt 0.91015625 0.585938125
vt 0.87890625 0.59765625
vt 0.867188125 0.585938125
vt 0.890625 0.55859375
vt 0.91015625 0.585938125
vt 0.91796875 0.94921875
vt 0.87890625 0.953125
vt 0.87890625 0.81640625
vt 0.91796875 0.81640625
vt 0.953125 0.94921875
vt 0.91796875 0.94921875
vt 0.91796875 0.81640625
vt 0.953125 0.81640625
vt 0.992188125 0.94921875
vt 0.953125 0.94921875
vt 0.953125 0.81640625
vt 0.992188125 0.81640625
vt 0.91796875 0.94921875
vt 0.953125 0.94921875
vt 0.953125 0.96484375
vt 0.91796875 0.96484375
vt 0.91796875 0.96484375
vt 0.953125 0.96484375
vt 0.953125 0.992188125
vt 0.91796875 0.992188125
vt 0.953125 0.96484375
vt 0.99609375 0.96484375
vt 0.99609375 0.992188125
vt 0.953125 0.992188125
vt 0.875 0.96875
vt 0.91796875 0.96484375
vt 0.91796875 0.992188125
vt 0.875 0.992188125
vt 0.953125 0.96484375
vt 0.97265625 0.9375
vt 0.99609375 0.96484375
vt 0.992188125 0.94921875
vt 0.984375 0.98046875
vt 0.953125 0.96484375
vt 0.953125 0.94921875
vt 0.87890625 0.953125
vt 0.91796875 0.94921875
vt 0.91796875 0.96484375
vt 0.88671875 0.98046875
vt 0.875 0.96875
vt 0.898438125 0.94140625
vt 0.91796875 0.96484375
vt 0.91015625 0.390625
vt 0.875 0.390625
vt 0.875 0.257811875
vt 0.91015625 0.257811875
vt 0.94921875 0.390625
vt 0.91015625 0.390625
vt 0.91015625 0.257811875
vt 0.94921875 0.257811875
vt 0.984375 0.390625
vt 0.94921875 0.390625
vt 0.94921875 0.257811875
vt 0.984375 0.257811875
vt 0.91015625 0.390625
vt 0.94921875 0.390625
vt 0.94921875 0.40625
vt 0.91015625 0.40625
vt 0.91015625 0.40625
vt 0.94921875 0.40625
vt 0.94921875 0.429688125
vt 0.91015625 0.429688125
vt 0.94921875 0.40625
vt 0.992188125 0.40625
vt 0.992188125 0.429688125
vt 0.94921875 0.429688125
vt 0.867188125 0.40625
vt 0.91015625 0.40625
vt 0.91015625 0.429688125
vt 0.867188125 0.429688125
vt 0.94921875 0.40625
vt 0.96875 0.37890625
vt 0.992188125 0.40625
vt 0.984375 0.390625
vt 0.98046875 0.41796875
vt 0.94921875 0.40625
vt 0.94921875 0.390625
vt 0.875 0.390625
vt 0.91015625 0.390625
vt 0.91015625 0.40625
vt 0.87890625 0.41796875
vt 0.867188125 0.40625
vt 0.890625 0.37890625
vt 0.91015625 0.40625
vt 0.914061875 0.757811875
vt 0.875 0.757811875
vt 0.875 0.62109375
vt 0.914061875 0.62109375
vt 0.94921875 0.757811875
vt 0.914061875 0.757811875
vt 0.914061875 0.62109375
vt 0.94921875 0.62109375
vt 0.98828125 0.757811875
vt 0.94921875 0.757811875
vt 0.94921875 0.62109375
vt 0.98828125 0.62109375
vt 0.914061875 0.757811875
vt 0.94921875 0.757811875
vt 0.94921875 0.76953125
vt 0.914061875 0.76953125
vt 0.914061875 0.76953125
vt 0.94921875 0.76953125
vt 0.94921875 0.796875
vt 0.914061875 0.796875
vt 0.94921875 0.76953125
vt 0.992188125 0.76953125
vt 0.992188125 0.796875
vt 0.94921875 0.796875
vt 0.87109375 0.76953125
vt 0.914061875 0.76953125
vt 0.914061875 0.796875
vt 0.87109375 0.80078125
vt 0.94921875 0.76953125
vt 0.96875 0.74609375
vt 0.992188125 0.76953125
vt 0.98828125 0.757811875
vt 0.98046875 0.78125
vt 0.94921875 0.76953125
vt 0.94921875 0.757811875
vt 0.875 0.757811875
vt 0.914061875 0.757811875
vt 0.914061875 0.76953125
vt 0.882811875 0.78125
vt 0.87109375 0.76953125
vt 0.89453125 0.74609375
vt 0.914061875 0.76953125
vt 0 0.4375
vt 0 0.054688124999999976
vt 0.085938125 0.07421875
vt 0.08203125 0.42578125
vt 0.851561875 0.0625
vt 0.851561875 0.4375
vt 0.76171875 0.42578125
vt 0.76171875 0.07421875
vt 0.79296875 0.5
vt 0.05078125 0.5
vt 0.08203125 0.42578125
vt 0.76171875 0.42578125
vt 0.757811875 0.578125
vt 0.757811875 0.929688125
vt 0.09375 0.929688125
vt 0.09375 0.578125
vt 0.76171875 0.07421875
vt 0.76171875 0.42578125
vt 0.08203125 0.42578125
vt 0.085938125 0.07421875
vt 0.09375 0.929688125
vt 0.757811875 0.929688125
vt 0.796875 1
vt 0.054688125 1
vt 0.09375 0.578125
vt 0.09375 0.929688125
vt 0 0.9375
vt 0 0.55859375
vt 0.757811875 0.929688125
vt 0.757811875 0.578125
vt 0.851561875 0.5625
vt 0.851561875 0.945311875
vt 0.94921875 0.390625
vt 0.91015625 0.390625
vt 0.91015625 0.257811875
vt 0.94921875 0.257811875
vt 0.91015625 0.390625
vt 0.875 0.390625
vt 0.875 0.257811875
vt 0.91015625 0.257811875
vt 0.87109375 0.773438125
vt 0.898438125 0.74609375
vt 0.914061875 0.773438125
vt 0.87890625 0.757811875
vt 0.914061875 0.757811875
vt 0.914061875 0.773438125
vt 0.88671875 0.78515625
vt 0.98828125 0.757811875
vt 0.984375 0.78515625
vt 0.953125 0.773438125
vt 0.953125 0.757811875
vt 0.953125 0.773438125
vt 0.97265625 0.74609375
vt 0.99609375 0.773438125
vt 0.87109375 0.773438125
vt 0.914061875 0.773438125
vt 0.914061875 0.796875
vt 0.87109375 0.80078125
vt 0.953125 0.773438125
vt 0.99609375 0.773438125
vt 0.99609375 0.796875
vt 0.953125 0.796875
vt 0.914061875 0.773438125
vt 0.953125 0.773438125
vt 0.953125 0.796875
vt 0.914061875 0.796875
vt 0.914061875 0.757811875
vt 0.953125 0.757811875
vt 0.953125 0.773438125
vt 0.914061875 0.773438125
vt 0.98828125 0.757811875
vt 0.953125 0.757811875
vt 0.953125 0.625
vt 0.98828125 0.625
vt 0.953125 0.757811875
vt 0.914061875 0.757811875
vt 0.914061875 0.625
vt 0.953125 0.625
vt 0.914061875 0.757811875
vt 0.87890625 0.757811875
vt 0.87890625 0.625
vt 0.914061875 0.625
vn 0 -0.22628396420005736 0.9740613777097967
vn 0 0.22606472654078955 0.9741122827549389
vn 0.805432918498655 0.4154399900876146 0.42271435797089024
vn 0.8724895022111069 0 0.48863285658192807
vn -0.8215248752161002 0.18930931627945816 0.5378279112978194
vn -0.8043889109331164 0.41643262719531476 0.4237243761869773
vn 0.8887408454083694 0.4584099799337017 0
vn -0.8880511678397431 0.4597446283519453 0
vn 0 -1 0
vn 0 0 -1
vn -0.8717203371578818 0 0.49000372833821304
vn 0 0 -1
vn 0.872489502211107 0 0.4886328565819281
vn 0.805432918498655 0.4154399900876146 0.42271435797089024
vn 0.8724895022111069 0 0.48863285658192807
vn -0.8215248752161005 0.18930931627945813 0.5378279112978193
vn -0.8043889109331167 0.41643262719531465 0.42372437618697717
vn 0.8887408454083694 0.4584099799337017 0
vn -0.8880511678397432 0.4597446283519451 0
vn 0 -1 0
vn 0 0 -1
vn -0.8717203371578819 0 0.49000372833821276
vn 0 0 -1
vn 0.872489502211107 0 0.4886328565819281
vn 0.8043646343044546 0.4164556658445042 0.42374781824367147
vn 0.8717024401300519 0 0.4900355659248758
vn -0.8225296400010017 0.18882774281262432 0.5364597607128722
vn -0.8054572002844341 0.4154168595240896 0.4226908223904374
vn 0.8880351177345136 0.4597756297045859 0
vn -0.8887568732817926 0.45837890461317243 0
vn 0 -1 0
vn 0 0 -1
vn -0.8725073802459363 0 0.48860093268062144
vn -0.8721767808797304 0 -0.48919082462191704
vn 0 0 1
vn 0.8729437940421985 0 -0.4878207995188518
vn 0 0 1
vn 0 -1 0
vn 0.8887408454083695 0.45840997993370186 0
vn -0.8880511678397431 0.45974462835194535 0
vn 0.8058552681090684 0.41565783680573826 -0.42169402362712677
vn 0.8231825183809075 0.1885138490681765 -0.5355679883465476
vn -0.8721767808797304 0 -0.489190824621917
vn -0.8048127327717282 0.4166520400182875 -0.42270266466761525
vn -0.8721767808797304 0 -0.48919082462191676
vn 0 0 1
vn 0.8729437940421985 0 -0.4878207995188518
vn 0 0 1
vn 0 -1 0
vn 0.8887408454083695 0.45840997993370186 0
vn -0.8880511678397432 0.4597446283519451 0
vn 0.8058552681090684 0.41565783680573826 -0.42169402362712677
vn 0.8231825183809075 0.1885138490681765 -0.5355679883465476
vn -0.8721767808797305 0 -0.48919082462191676
vn -0.8048127327717285 0.4166520400182874 -0.42270266466761514
vn -0.8729616219796131 0 -0.4877888954770527
vn 0 0 1
vn 0.8721589338422082 0 -0.48922264268860527
vn 0 0 1
vn 0 -1 0
vn 0.8880351177345136 0.45977562970458596 0
vn -0.8887568732817925 0.4583789046131723 0
vn 0.8047884902838853 0.4166751151049614 -0.4227260748509041
vn 0.8221803763609082 0.18899534720307676 -0.5369359249134144
vn -0.8729616219796132 0 -0.48778889547705273
vn -0.8058795155599826 0.41563466983782865 -0.4216705202283022
vn -0.8729616219796126 0 -0.4877888954770537
vn 0 0 1
vn 0.8721589338422082 0 -0.48922264268860527
vn 0 0 1
vn 0 -1 0
vn 0.8880351177345136 0.45977562970458596 0
vn -0.8887568732817921 0.4583789046131733 0
vn 0.8047884902838853 0.4166751151049614 -0.4227260748509041
vn 0.8221803763609082 0.18899534720307676 -0.5369359249134144
vn -0.8729616219796126 0 -0.4877888954770536
vn -0.8058795155599818 0.4156346698378293 -0.42167052022830287
vn 0.9169867051424062 -0.3989177641971761 0
vn -0.9169780293221336 -0.39893770659151373 0
vn 0 -0.2262839642000574 -0.9740613777097968
vn 0 1 0
vn 0 -1 0
vn 0 0.22606472654078955 -0.9741122827549389
vn -0.9171270024135446 0.3985951096588443 0
vn 0.9171356647459461 0.39857517791630165 0
vn 0 0 -1
vn 0.871702440130052 0 0.4900355659248758
vn 0.8043646343044546 0.4164556658445042 0.42374781824367147
vn 0.8717024401300519 0 0.4900355659248758
vn -0.8225296400010011 0.18882774281262465 0.5364597607128732
vn -0.8054572002844334 0.4154168595240902 0.42269082239043815
vn 0.8880351177345136 0.4597756297045859 0
vn -0.8887568732817922 0.4583789046131733 0
vn 0 -1 0
vn 0 0 -1
vn -0.8725073802459359 0 0.48860093268062255
vn 0 0 -1
vn 0.871702440130052 0 0.4900355659248758
usemtl m_ac28c526-2a96-2d37-f9cf-df07743d9e81
f 1/1/1 2/2/1 3/3/1 4/4/1
f 4/5/2 5/6/2 6/7/2 1/8/2
f 7/9/3 8/10/3 9/11/3
f 10/12/4 11/13/4 9/14/4 8/15/4
f 10/16/5 8/17/5 12/18/5 13/19/5
f 12/20/6 8/21/6 7/22/6
f 7/23/7 9/24/7 14/25/7 15/26/7
f 12/27/8 7/28/8 15/29/8 16/30/8
f 9/31/9 12/32/9 16/33/9 14/34/9
f 11/35/10 13/36/10 12/37/10 9/38/10
f 10/39/11 13/40/11 17/41/11 18/42/11
f 13/43/12 11/44/12 19/45/12 17/46/12
f 11/47/13 10/48/13 18/49/13 19/50/13
f 20/51/14 21/52/14 22/53/14
f 23/54/15 24/55/15 22/56/15 21/57/15
f 23/58/16 21/59/16 25/60/16 26/61/16
f 25/62/17 21/63/17 20/64/17
f 20/65/18 22/66/18 27/67/18 28/68/18
f 25/69/19 20/70/19 28/71/19 29/72/19
f 22/73/20 25/74/20 29/75/20 27/76/20
f 24/77/21 26/78/21 25/79/21 22/80/21
f 23/81/22 26/82/22 30/83/22 31/84/22
f 26/85/23 24/86/23 32/87/23 30/88/23
f 24/89/24 23/90/24 31/91/24 32/92/24
f 33/93/25 34/94/25 35/95/25
f 36/96/26 37/97/26 35/98/26 34/99/26
f 36/100/27 34/101/27 38/102/27 39/103/27
f 38/104/28 34/105/28 33/106/28
f 33/107/29 35/108/29 40/109/29 41/110/29
f 38/111/30 33/112/30 41/113/30 42/114/30
f 35/115/31 38/116/31 42/117/31 40/118/31
f 37/119/32 39/120/32 38/121/32 35/122/32
f 36/123/33 39/124/33 43/125/33 44/126/33
f 45/127/34 46/128/34 47/129/34 48/130/34
f 49/131/35 45/132/35 48/133/35 50/134/35
f 46/135/36 49/136/36 50/137/36 47/138/36
f 45/139/37 49/140/37 51/141/37 52/142/37
f 52/143/38 51/144/38 53/145/38 54/146/38
f 51/147/39 55/148/39 56/149/39 53/150/39
f 55/151/40 52/152/40 54/153/40 56/154/40
f 51/155/41 57/156/41 55/157/41
f 46/158/42 57/159/42 51/160/42 49/161/42
f 46/162/43 45/163/43 52/164/43 57/165/43
f 55/166/44 57/167/44 52/168/44
f 58/169/45 59/170/45 60/171/45 61/172/45
f 62/173/46 58/174/46 61/175/46 63/176/46
f 59/177/47 62/178/47 63/179/47 60/180/47
f 58/181/48 62/182/48 64/183/48 65/184/48
f 65/185/49 64/186/49 66/187/49 67/188/49
f 64/189/50 68/190/50 69/191/50 66/192/50
f 68/193/51 65/194/51 67/195/51 69/196/51
f 64/197/52 70/198/52 68/199/52
f 59/200/53 70/201/53 64/202/53 62/203/53
f 59/204/54 58/205/54 65/206/54 70/207/54
f 68/208/55 70/209/55 65/210/55
f 71/211/56 72/212/56 73/213/56 74/214/56
f 75/215/57 71/216/57 74/217/57 76/218/57
f 72/219/58 75/220/58 76/221/58 73/222/58
f 71/223/59 75/224/59 77/225/59 78/226/59
f 78/227/60 77/228/60 79/229/60 80/230/60
f 77/231/61 81/232/61 82/233/61 79/234/61
f 81/235/62 78/236/62 80/237/62 82/238/62
f 77/239/63 83/240/63 81/241/63
f 72/242/64 83/243/64 77/244/64 75/245/64
f 72/246/65 71/247/65 78/248/65 83/249/65
f 81/250/66 83/251/66 78/252/66
f 84/253/67 85/254/67 86/255/67 87/256/67
f 88/257/68 84/258/68 87/259/68 89/260/68
f 85/261/69 88/262/69 89/263/69 86/264/69
f 84/265/70 88/266/70 90/267/70 91/268/70
f 91/269/71 90/270/71 92/271/71 93/272/71
f 90/273/72 94/274/72 95/275/72 92/276/72
f 94/277/73 91/278/73 93/279/73 95/280/73
f 90/281/74 96/282/74 94/283/74
f 85/284/75 96/285/75 90/286/75 88/287/75
f 85/288/76 84/289/76 91/290/76 96/291/76
f 94/292/77 96/293/77 91/294/77
f 97/295/78 4/296/78 3/297/78 98/298/78
f 1/299/79 99/300/79 100/301/79 2/302/79
f 99/303/80 97/304/80 98/305/80 100/306/80
f 5/307/81 101/308/81 102/309/81 6/310/81
f 2/311/82 100/312/82 98/313/82 3/314/82
f 102/315/83 101/316/83 97/317/83 99/318/83
f 6/319/84 102/320/84 99/321/84 1/322/84
f 101/323/85 5/324/85 4/325/85 97/326/85
f 39/327/86 37/328/86 103/329/86 43/330/86
f 37/331/87 36/332/87 44/333/87 103/334/87
f 104/335/88 105/336/88 106/337/88
f 107/338/89 108/339/89 106/340/89 105/341/89
f 107/342/90 105/343/90 109/344/90 110/345/90
f 109/346/91 105/347/91 104/348/91
f 104/349/92 106/350/92 111/351/92 112/352/92
f 109/353/93 104/354/93 112/355/93 113/356/93
f 106/357/94 109/358/94 113/359/94 111/360/94
f 108/361/95 110/362/95 109/363/95 106/364/95
f 107/365/96 110/366/96 114/367/96 115/368/96
f 110/369/97 108/370/97 116/371/97 114/372/97
f 108/373/98 107/374/98 115/375/98 116/376/98